<?xml version="1.0" encoding="UTF-8" standalone="no"?>
<svg
   xmlns:dc="http://purl.org/dc/elements/1.1/"
   xmlns:cc="http://creativecommons.org/ns#"
   xmlns:rdf="http://www.w3.org/1999/02/22-rdf-syntax-ns#"
   xmlns:svg="http://www.w3.org/2000/svg"
   xmlns="http://www.w3.org/2000/svg"
   version="1.1"
   id="svg2"
   viewBox="0 0 400 176"
   height="176"
   width="400">
  <defs
     id="defs4">
    <marker
       orient="auto"
       refY="0"
       refX="0"
       id="marker4659"
       style="overflow:visible">
      <path
         id="path4661"
         style="fill:#00a7d0;fill-opacity:1;fill-rule:evenodd;stroke:#00a7d0;stroke-width:0.625;stroke-linejoin:round;stroke-opacity:1"
         d="M 8.7185878,4.0337352 -2.2072895,0.01601326 8.7185884,-4.0017078 c -1.7454984,2.3720609 -1.7354408,5.6174519 -6e-7,8.035443 z"
         transform="matrix(-0.3,0,0,-0.3,0.69,0)" />
    </marker>
    <marker
       style="overflow:visible"
       id="marker6022"
       refX="0"
       refY="0"
       orient="auto">
      <path
         transform="matrix(-0.3,0,0,-0.3,0.69,0)"
         d="M 8.7185878,4.0337352 -2.2072895,0.01601326 8.7185884,-4.0017078 c -1.7454984,2.3720609 -1.7354408,5.6174519 -6e-7,8.035443 z"
         style="fill:#00a7d0;fill-opacity:1;fill-rule:evenodd;stroke:#00a7d0;stroke-width:0.625;stroke-linejoin:round;stroke-opacity:1"
         id="path6024" />
    </marker>
    <marker
       orient="auto"
       refY="0"
       refX="0"
       id="marker5128"
       style="overflow:visible">
      <path
         id="path5130"
         style="fill:#00a7d0;fill-opacity:1;fill-rule:evenodd;stroke:#00a7d0;stroke-width:0.625;stroke-linejoin:round;stroke-opacity:1"
         d="M 8.7185878,4.0337352 -2.2072895,0.01601326 8.7185884,-4.0017078 c -1.7454984,2.3720609 -1.7354408,5.6174519 -6e-7,8.035443 z"
         transform="matrix(-0.3,0,0,-0.3,0.69,0)" />
    </marker>
    <marker
       style="overflow:visible"
       id="marker4800"
       refX="0"
       refY="0"
       orient="auto">
      <path
         transform="matrix(-0.3,0,0,-0.3,0.69,0)"
         d="M 8.7185878,4.0337352 -2.2072895,0.01601326 8.7185884,-4.0017078 c -1.7454984,2.3720609 -1.7354408,5.6174519 -6e-7,8.035443 z"
         style="fill:#00a7d0;fill-opacity:1;fill-rule:evenodd;stroke:#00a7d0;stroke-width:0.625;stroke-linejoin:round;stroke-opacity:1"
         id="path4802" />
    </marker>
    <marker
       orient="auto"
       refY="0"
       refX="0"
       id="marker4664"
       style="overflow:visible">
      <path
         id="path4666"
         style="fill:#00a7d0;fill-opacity:1;fill-rule:evenodd;stroke:#00a7d0;stroke-width:0.625;stroke-linejoin:round;stroke-opacity:1"
         d="M 8.7185878,4.0337352 -2.2072895,0.01601326 8.7185884,-4.0017078 c -1.7454984,2.3720609 -1.7354408,5.6174519 -6e-7,8.035443 z"
         transform="matrix(-0.3,0,0,-0.3,0.69,0)" />
    </marker>
    <marker
       style="overflow:visible"
       id="marker4565"
       refX="0"
       refY="0"
       orient="auto">
      <path
         transform="matrix(-0.3,0,0,-0.3,0.69,0)"
         d="M 8.7185878,4.0337352 -2.2072895,0.01601326 8.7185884,-4.0017078 c -1.7454984,2.3720609 -1.7354408,5.6174519 -6e-7,8.035443 z"
         style="fill:#00a7d0;fill-opacity:1;fill-rule:evenodd;stroke:#00a7d0;stroke-width:0.625;stroke-linejoin:round;stroke-opacity:1"
         id="path4567" />
    </marker>
    <marker
       style="overflow:visible"
       id="Arrow2Send"
       refX="0"
       refY="0"
       orient="auto">
      <path
         transform="matrix(-0.3,0,0,-0.3,0.69,0)"
         d="M 8.7185878,4.0337352 -2.2072895,0.01601326 8.7185884,-4.0017078 c -1.7454984,2.3720609 -1.7354408,5.6174519 -6e-7,8.035443 z"
         style="fill:#00a7d0;fill-opacity:1;fill-rule:evenodd;stroke:#00a7d0;stroke-width:0.625;stroke-linejoin:round;stroke-opacity:1"
         id="path4320" />
    </marker>
    <marker
       style="overflow:visible"
       id="marker4980"
       refX="0"
       refY="0"
       orient="auto">
      <path
         transform="matrix(-0.2,0,0,-0.2,-1.2,0)"
         style="fill:#000000;fill-opacity:1;fill-rule:evenodd;stroke:#000000;stroke-width:1pt;stroke-opacity:1"
         d="M 0,0 5,-5 -12.5,0 5,5 0,0 Z"
         id="path4982" />
    </marker>
    <marker
       style="overflow:visible"
       id="Arrow2Send-6"
       refX="0"
       refY="0"
       orient="auto">
      <path
         transform="matrix(-0.3,0,0,-0.3,0.69,0)"
         d="M 8.7185878,4.0337352 -2.2072895,0.01601326 8.7185884,-4.0017078 c -1.7454984,2.3720609 -1.7354408,5.6174519 -6e-7,8.035443 z"
         style="fill:#00a7d0;fill-opacity:1;fill-rule:evenodd;stroke:#00a7d0;stroke-width:0.625;stroke-linejoin:round;stroke-opacity:1"
         id="path4320-4" />
    </marker>
    <marker
       style="overflow:visible"
       id="Arrow2Send-9"
       refX="0"
       refY="0"
       orient="auto">
      <path
         transform="matrix(-0.3,0,0,-0.3,0.69,0)"
         d="M 8.7185878,4.0337352 -2.2072895,0.01601326 8.7185884,-4.0017078 c -1.7454984,2.3720609 -1.7354408,5.6174519 -6e-7,8.035443 z"
         style="fill:#00a7d0;fill-opacity:1;fill-rule:evenodd;stroke:#00a7d0;stroke-width:0.625;stroke-linejoin:round;stroke-opacity:1"
         id="path4320-1" />
    </marker>
  </defs>
  <metadata
     id="metadata7">
    <rdf:RDF>
      <cc:Work
         rdf:about="">
        <dc:format>image/svg+xml</dc:format>
        <dc:type
           rdf:resource="http://purl.org/dc/dcmitype/StillImage" />
        <dc:title></dc:title>
      </cc:Work>
    </rdf:RDF>
  </metadata>
  <g
     style="display:inline"
     transform="translate(0,-876.36216)"
     id="layer1">
    <g
       id="g4935">
      <g
         style="display:inline"
         transform="translate(-72.540085,74.408984)"
         id="g3547">
        <path
           style="fill:#ffffff;fill-opacity:1;fill-rule:evenodd;stroke:#00a7d0;stroke-width:2.99999976;stroke-linecap:butt;stroke-linejoin:miter;stroke-miterlimit:4;stroke-dasharray:none;stroke-opacity:1"
           d="m 104.54072,859.38614 22.02499,-12.7165 0,-25.43302 -22.02499,-12.7165 -22.02626,12.7165 0,25.43302 z"
           id="path3549" />
        <path
           id="path3551"
           d="m 104.54072,859.38614 -6.4e-4,-25.43301 22.02563,-12.71651 -22.02563,12.71651 -22.02562,-12.71651 22.02562,12.71651 z"
           style="fill:none;fill-rule:evenodd;stroke:#00a7d0;stroke-width:2.99999976;stroke-linecap:butt;stroke-linejoin:miter;stroke-miterlimit:4;stroke-dasharray:none;stroke-opacity:1" />
        <rect
           style="fill:none;fill-opacity:1;stroke:none;stroke-width:1.5;stroke-miterlimit:4;stroke-dasharray:none;stroke-dashoffset:0;stroke-opacity:1"
           id="rect3553"
           width="64"
           height="64"
           x="72.540085"
           y="801.95312" />
      </g>
      <path
         style="fill:none;fill-rule:evenodd;stroke:#00a7d0;stroke-width:2;stroke-linecap:butt;stroke-linejoin:miter;stroke-miterlimit:4;stroke-dasharray:none;stroke-opacity:1;marker-end:url(#marker4565)"
         d="m 64,908.36212 116,0"
         id="path3573" />
      <g
         id="text3575"
         style="font-style:normal;font-variant:normal;font-weight:normal;font-stretch:normal;font-size:15px;line-height:125%;font-family:Montserrat;-inkscape-font-specification:Montserrat;text-align:center;letter-spacing:0px;word-spacing:0px;text-anchor:middle;fill:#00a7d0;fill-opacity:1;stroke:none;stroke-width:1px;stroke-linecap:butt;stroke-linejoin:miter;stroke-opacity:1">
        <path
           id="path3654"
           style=""
           d="m 13.619873,941.64227 q 1.062012,0 1.896973,0.33692 0.842285,0.33691 1.398925,0.96679 l -0.944824,1.11329 q -0.871582,-0.90088 -2.219238,-0.90088 -1.062012,0 -1.750488,0.71045 -0.681153,0.70312 -0.681153,1.83837 0,1.12793 0.666504,1.83838 0.666504,0.71045 1.706543,0.71045 1.530762,0 2.351074,-0.95947 l 0.959473,0.95947 q -0.541992,0.71778 -1.40625,1.10596 -0.856933,0.38086 -1.977539,0.38086 -1.171875,0 -2.087402,-0.50537 -0.915528,-0.5127 -1.428223,-1.42822 -0.505371,-0.91553 -0.505371,-2.10206 0,-1.20117 0.505371,-2.11669 0.512695,-0.92286 1.428223,-1.43555 0.915527,-0.5127 2.087402,-0.5127 z" />
        <path
           id="path3656"
           style=""
           d="m 21.910889,941.64227 q 1.21582,0 2.160644,0.5127 0.944824,0.51269 1.464844,1.42822 0.527344,0.9082 0.527344,2.10938 0,1.18652 -0.527344,2.10937 -0.52002,0.92285 -1.464844,1.43555 -0.944824,0.50537 -2.160644,0.50537 -1.230469,0 -2.175293,-0.50537 -0.944825,-0.5127 -1.472168,-1.43555 -0.52002,-0.92285 -0.52002,-2.10937 0,-1.20118 0.52002,-2.10938 0.527343,-0.91553 1.472168,-1.42822 0.944824,-0.5127 2.175293,-0.5127 z m 0,1.48682 q -1.07666,0 -1.765137,0.7251 -0.681152,0.71777 -0.681152,1.85302 0,1.15723 0.681152,1.88233 0.688477,0.71777 1.765137,0.71777 1.07666,0 1.750488,-0.71777 0.681152,-0.7251 0.681152,-1.88233 0,-1.14257 -0.688476,-1.86035 -0.681153,-0.71777 -1.743164,-0.71777 z" />
        <path
           id="path3658"
           style=""
           d="m 32.531006,941.64227 q 1.391601,0 2.182617,0.82032 0.791016,0.82031 0.791016,2.25585 l 0,4.96583 -1.728516,0 0,-4.48243 q 0,-0.90088 -0.512695,-1.4209 -0.505371,-0.52001 -1.40625,-0.52001 -0.959473,0.0146 -1.567383,0.61523 -0.60791,0.60059 -0.695801,1.56006 l 0,4.24805 -1.728515,0 0,-7.9834 1.728515,0 0,1.53076 q 0.812988,-1.58936 2.937012,-1.58936 z" />
        <path
           id="path3660"
           style=""
           d="m 43.795654,940.45575 q -0.432129,0 -0.717773,-0.28565 -0.285645,-0.29296 -0.285645,-0.74707 0,-0.46142 0.285645,-0.75439 0.285644,-0.29297 0.717773,-0.29297 0.432129,0 0.717774,0.29297 0.285644,0.29297 0.285644,0.75439 0,0.44678 -0.285644,0.73975 -0.278321,0.29297 -0.717774,0.29297 z m -5.668945,0.76904 q 0,-0.90088 0.388184,-1.52344 0.395507,-0.62255 1.02539,-0.92285 0.629883,-0.30029 1.333008,-0.30029 0.856934,0 1.486816,0.35889 l -0.06592,1.50146 q -0.761718,-0.34424 -1.376953,-0.34424 -0.498047,0 -0.791015,0.25635 -0.285645,0.25635 -0.285645,0.80567 l 0,0.93017 2.080078,0 0,1.29639 -2.080078,0 0,6.40137 -1.713867,0 0,-6.40137 -1.047363,0 0,-1.29639 1.047363,0 0,-0.76172 z m 6.525879,0.47608 0,7.9834 -1.706543,0 0,-7.9834 1.706543,0 z" />
        <path
           id="path3662"
           style=""
           d="m 54.401123,948.9079 q 0,1.14258 -0.512695,1.97754 -0.505371,0.84228 -1.442871,1.29638 -0.9375,0.45411 -2.182618,0.45411 -1.77246,0 -3.317871,-1.04737 l 0.739746,-1.24512 q 0.585938,0.43213 1.186524,0.65186 0.60791,0.21973 1.318359,0.21973 1.142578,0 1.823731,-0.61524 0.681152,-0.61523 0.681152,-1.64795 l 0,-1.01074 q -0.402832,0.65918 -1.07666,1.01074 -0.666504,0.34424 -1.567383,0.34424 -1.062012,0 -1.882324,-0.4834 -0.812988,-0.49072 -1.26709,-1.3623 -0.446777,-0.87158 -0.446777,-2.01416 0,-1.12793 0.446777,-1.98487 0.454102,-0.86425 1.26709,-1.333 0.820312,-0.47608 1.882324,-0.47608 0.886231,0 1.560059,0.35889 0.673828,0.35156 1.083984,0.99609 l 0,-1.29638 1.706543,0 0,7.20703 z m -4.006348,-0.9668 q 1.010743,0 1.655274,-0.68848 0.644531,-0.68847 0.644531,-1.76513 0,-1.07666 -0.637207,-1.75781 -0.637207,-0.68848 -1.662598,-0.68848 -1.018066,0 -1.662597,0.68115 -0.644532,0.68115 -0.65918,1.76514 0.01465,1.07666 0.651856,1.76513 0.637207,0.68848 1.669921,0.68848 z" />
      </g>
      <g
         id="text3587"
         style="font-style:normal;font-variant:normal;font-weight:normal;font-stretch:normal;font-size:15px;line-height:125%;font-family:Montserrat;-inkscape-font-specification:Montserrat;text-align:center;letter-spacing:0px;word-spacing:0px;text-anchor:middle;display:inline;fill:#00a7d0;fill-opacity:1;stroke:none;stroke-width:1px;stroke-linecap:butt;stroke-linejoin:miter;stroke-opacity:1">
        <path
           id="path3612"
           style=""
           d="m 181.02124,949.68427 -1.72119,0 0,-1.36231 q -0.43213,0.70313 -1.1499,1.06934 -0.71045,0.36621 -1.65528,0.36621 -1.14258,0 -2.00683,-0.5127 -0.85694,-0.52002 -1.34033,-1.45019 -0.47608,-0.93018 -0.47608,-2.13135 0,-1.18652 0.47608,-2.10205 0.48339,-0.91553 1.34033,-1.4209 0.86425,-0.5127 1.97754,-0.5127 0.95947,0 1.66992,0.38086 0.71045,0.37354 1.16455,1.07666 l 0,-4.53369 1.72119,0 0,11.13282 z m -4.16748,-1.36231 q 1.08398,0 1.76514,-0.7251 0.68115,-0.73242 0.68115,-1.875 0,-1.15722 -0.68115,-1.88965 -0.68116,-0.73242 -1.76514,-0.73242 -1.07666,0 -1.76514,0.73975 -0.68115,0.73242 -0.6958,1.88232 0.0146,1.14258 0.6958,1.875 0.68848,0.7251 1.76514,0.7251 z" />
        <path
           id="path3614"
           style=""
           d="m 186.93188,941.64227 q 1.88965,0 2.82715,1.06934 0.9375,1.06201 0.9375,2.9956 0,0.19776 -0.0293,0.64454 l -6.03516,0 q 0.2124,0.93017 0.87158,1.46484 0.65918,0.53467 1.60401,0.53467 0.64453,0 1.23046,-0.2417 0.58594,-0.2417 1.01807,-0.68848 l 0.91553,0.97412 q -0.60059,0.64453 -1.44287,0.9961 -0.83496,0.35156 -1.85303,0.35156 -1.21582,0 -2.13867,-0.50537 -0.92285,-0.5127 -1.43555,-1.42822 -0.50537,-0.91553 -0.50537,-2.10206 0,-1.18652 0.50537,-2.10205 0.5127,-0.92285 1.43555,-1.44287 0.92285,-0.52002 2.09472,-0.52002 z m 2.23389,3.44971 q -0.0439,-0.95947 -0.64453,-1.50879 -0.60059,-0.55664 -1.57471,-0.55664 -0.94482,0 -1.56738,0.55664 -0.62256,0.54932 -0.77637,1.50879 l 4.56299,0 z" />
        <path
           id="path3616"
           style=""
           d="m 198.40161,940.45575 q -0.43213,0 -0.71777,-0.28565 -0.28565,-0.29296 -0.28565,-0.74707 0,-0.46142 0.28565,-0.75439 0.28564,-0.29297 0.71777,-0.29297 0.43213,0 0.71777,0.29297 0.28565,0.29297 0.28565,0.75439 0,0.44678 -0.28565,0.73975 -0.27832,0.29297 -0.71777,0.29297 z m -5.66894,0.76904 q 0,-0.90088 0.38818,-1.52344 0.39551,-0.62255 1.02539,-0.92285 0.62988,-0.30029 1.33301,-0.30029 0.85693,0 1.48681,0.35889 l -0.0659,1.50146 q -0.76172,-0.34424 -1.37696,-0.34424 -0.49804,0 -0.79101,0.25635 -0.28565,0.25635 -0.28565,0.80567 l 0,0.93017 2.08008,0 0,1.29639 -2.08008,0 0,6.40137 -1.71386,0 0,-6.40137 -1.04737,0 0,-1.29639 1.04737,0 0,-0.76172 z m 6.52587,0.47608 0,7.9834 -1.70654,0 0,-7.9834 1.70654,0 z" />
        <path
           id="path3618"
           style=""
           d="m 206.4729,941.64227 q 1.3916,0 2.18262,0.82032 0.79101,0.82031 0.79101,2.25585 l 0,4.96583 -1.72851,0 0,-4.48243 q 0,-0.90088 -0.5127,-1.4209 -0.50537,-0.52001 -1.40625,-0.52001 -0.95947,0.0146 -1.56738,0.61523 -0.60791,0.60059 -0.6958,1.56006 l 0,4.24805 -1.72852,0 0,-7.9834 1.72852,0 0,1.53076 q 0.81299,-1.58936 2.93701,-1.58936 z" />
        <path
           id="path3620"
           style=""
           d="m 211.73901,949.68427 0,-7.9834 1.71387,0 0,7.9834 -1.71387,0 z m 0.84961,-11.3086 q 0.43946,0 0.7251,0.29297 0.28565,0.29297 0.28565,0.75439 0,0.44678 -0.28565,0.73975 -0.28564,0.29297 -0.7251,0.29297 -0.43213,0 -0.71777,-0.28565 -0.28564,-0.29296 -0.28564,-0.74707 0,-0.46142 0.28564,-0.75439 0.28564,-0.29297 0.71777,-0.29297 z" />
        <path
           id="path3622"
           style=""
           d="m 220.5061,949.17157 q -0.99609,0.58594 -1.97021,0.58594 -0.97412,0 -1.60401,-0.58594 -0.62988,-0.58594 -0.62988,-1.73584 l 0,-4.13818 -1.12793,0 0,-1.29639 1.12793,0 0,-2.18994 1.71387,0 0,2.18994 2.35107,0 0,1.29639 -2.35107,0 0,3.82324 q 0,0.60058 0.20508,0.84228 0.2124,0.23438 0.64453,0.23438 0.4834,0 1.20117,-0.34424 l 0.43945,1.31836 z" />
        <path
           id="path3624"
           style=""
           d="m 222.08081,949.68427 0,-7.9834 1.71387,0 0,7.9834 -1.71387,0 z m 0.84961,-11.3086 q 0.43945,0 0.7251,0.29297 0.28564,0.29297 0.28564,0.75439 0,0.44678 -0.28564,0.73975 -0.28565,0.29297 -0.7251,0.29297 -0.43213,0 -0.71777,-0.28565 -0.28565,-0.29296 -0.28565,-0.74707 0,-0.46142 0.28565,-0.75439 0.28564,-0.29297 0.71777,-0.29297 z" />
        <path
           id="path3626"
           style=""
           d="m 229.74927,941.64227 q 1.21582,0 2.16064,0.5127 0.94483,0.51269 1.46485,1.42822 0.52734,0.9082 0.52734,2.10938 0,1.18652 -0.52734,2.10937 -0.52002,0.92285 -1.46485,1.43555 -0.94482,0.50537 -2.16064,0.50537 -1.23047,0 -2.1753,-0.50537 -0.94482,-0.5127 -1.47216,-1.43555 -0.52002,-0.92285 -0.52002,-2.10937 0,-1.20118 0.52002,-2.10938 0.52734,-0.91553 1.47216,-1.42822 0.94483,-0.5127 2.1753,-0.5127 z m 0,1.48682 q -1.07666,0 -1.76514,0.7251 -0.68115,0.71777 -0.68115,1.85302 0,1.15723 0.68115,1.88233 0.68848,0.71777 1.76514,0.71777 1.07666,0 1.75049,-0.71777 0.68115,-0.7251 0.68115,-1.88233 0,-1.14257 -0.68848,-1.86035 -0.68115,-0.71777 -1.74316,-0.71777 z" />
        <path
           id="path3628"
           style=""
           d="m 240.36938,941.64227 q 1.39161,0 2.18262,0.82032 0.79102,0.82031 0.79102,2.25585 l 0,4.96583 -1.72852,0 0,-4.48243 q 0,-0.90088 -0.51269,-1.4209 -0.50537,-0.52001 -1.40625,-0.52001 -0.95948,0.0146 -1.56739,0.61523 -0.60791,0.60059 -0.6958,1.56006 l 0,4.24805 -1.72851,0 0,-7.9834 1.72851,0 0,1.53076 q 0.81299,-1.58936 2.93701,-1.58936 z" />
        <path
           id="path3630"
           style=""
           d="m 204.20239,959.20575 q -0.43213,0 -0.71777,-0.28565 -0.28565,-0.29296 -0.28565,-0.74707 0,-0.46142 0.28565,-0.75439 0.28564,-0.29297 0.71777,-0.29297 0.43213,0 0.71778,0.29297 0.28564,0.29297 0.28564,0.75439 0,0.44678 -0.28564,0.73975 -0.27832,0.29297 -0.71778,0.29297 z m -5.66894,0.76904 q 0,-0.90088 0.38818,-1.52344 0.39551,-0.62255 1.02539,-0.92285 0.62988,-0.30029 1.33301,-0.30029 0.85693,0 1.48682,0.35889 l -0.0659,1.50146 q -0.76172,-0.34424 -1.37696,-0.34424 -0.49804,0 -0.79101,0.25635 -0.28565,0.25635 -0.28565,0.80567 l 0,0.93017 2.08008,0 0,1.29639 -2.08008,0 0,6.40137 -1.71386,0 0,-6.40137 -1.04737,0 0,-1.29639 1.04737,0 0,-0.76172 z m 6.52588,0.47608 0,7.9834 -1.70655,0 0,-7.9834 1.70655,0 z" />
        <path
           id="path3632"
           style=""
           d="m 207.6814,968.43427 0,-11.13282 1.72851,0 0,11.13282 -1.72851,0 z" />
        <path
           id="path3634"
           style=""
           d="m 215.32056,960.39227 q 1.88965,0 2.82715,1.06934 0.9375,1.06201 0.9375,2.9956 0,0.19776 -0.0293,0.64454 l -6.03516,0 q 0.2124,0.93017 0.87158,1.46484 0.65918,0.53467 1.60401,0.53467 0.64453,0 1.23047,-0.2417 0.58593,-0.2417 1.01806,-0.68848 l 0.91553,0.97412 q -0.60059,0.64453 -1.44287,0.9961 -0.83496,0.35156 -1.85303,0.35156 -1.21582,0 -2.13867,-0.50537 -0.92285,-0.5127 -1.43555,-1.42822 -0.50537,-0.91553 -0.50537,-2.10206 0,-1.18652 0.50537,-2.10205 0.5127,-0.92285 1.43555,-1.44287 0.92285,-0.52002 2.09473,-0.52002 z m 2.23388,3.44971 q -0.0439,-0.95947 -0.64453,-1.50879 -0.60058,-0.55664 -1.5747,-0.55664 -0.94483,0 -1.56739,0.55664 -0.62256,0.54932 -0.77636,1.50879 l 4.56298,0 z" />
      </g>
      <g
         id="text3603"
         style="font-style:normal;font-variant:normal;font-weight:normal;font-stretch:normal;font-size:7.5px;line-height:125%;font-family:Montserrat;-inkscape-font-specification:Montserrat;text-align:center;letter-spacing:0px;word-spacing:0px;text-anchor:middle;display:inline;fill:#00a7d0;fill-opacity:1;stroke:none;stroke-width:1px;stroke-linecap:butt;stroke-linejoin:miter;stroke-opacity:1">
        <path
           id="path3637"
           style=""
           d="m 146.93103,913.30286 q 0.53101,0 0.94849,0.16845 0.42114,0.16846 0.69946,0.4834 l -0.47241,0.55664 q -0.43579,-0.45044 -1.10962,-0.45044 -0.53101,0 -0.87525,0.35523 -0.34057,0.35156 -0.34057,0.91919 0,0.56396 0.33325,0.91919 0.33325,0.35522 0.85327,0.35522 0.76538,0 1.17554,-0.47974 l 0.47973,0.47974 q -0.27099,0.35889 -0.70312,0.55298 -0.42847,0.19043 -0.98877,0.19043 -0.58594,0 -1.0437,-0.25269 -0.45776,-0.25634 -0.71411,-0.71411 -0.25269,-0.45776 -0.25269,-1.05102 0,-0.60059 0.25269,-1.05835 0.25635,-0.46143 0.71411,-0.71778 0.45776,-0.25634 1.0437,-0.25634 z" />
        <path
           id="path3639"
           style=""
           d="m 151.07654,913.30286 q 0.60791,0 1.08032,0.25634 0.47241,0.25635 0.73242,0.71412 0.26367,0.4541 0.26367,1.05468 0,0.59326 -0.26367,1.05469 -0.26001,0.46143 -0.73242,0.71777 -0.47241,0.25269 -1.08032,0.25269 -0.61524,0 -1.08765,-0.25269 -0.47241,-0.25634 -0.73608,-0.71777 -0.26001,-0.46143 -0.26001,-1.05469 0,-0.60058 0.26001,-1.05468 0.26367,-0.45777 0.73608,-0.71412 0.47241,-0.25634 1.08765,-0.25634 z m 0,0.7434 q -0.53833,0 -0.88257,0.36255 -0.34058,0.35889 -0.34058,0.92652 0,0.57861 0.34058,0.94116 0.34424,0.35889 0.88257,0.35889 0.53833,0 0.87524,-0.35889 0.34058,-0.36255 0.34058,-0.94116 0,-0.57129 -0.34424,-0.93018 -0.34058,-0.35889 -0.87158,-0.35889 z" />
        <path
           id="path3641"
           style=""
           d="m 156.3866,913.30286 q 0.6958,0 1.09131,0.41015 0.3955,0.41016 0.3955,1.12793 l 0,2.48291 -0.86425,0 0,-2.24121 q 0,-0.45044 -0.25635,-0.71045 -0.25269,-0.26001 -0.70313,-0.26001 -0.47973,0.007 -0.78369,0.30762 -0.30395,0.30029 -0.3479,0.78003 l 0,2.12402 -0.86426,0 0,-3.9917 0.86426,0 0,0.76538 q 0.40649,-0.79467 1.46851,-0.79467 z" />
        <path
           id="path3643"
           style=""
           d="m 161.27917,917.0675 q -0.49804,0.29297 -0.9851,0.29297 -0.48706,0 -0.802,-0.29297 -0.31495,-0.29296 -0.31495,-0.86792 l 0,-2.06909 -0.56396,0 0,-0.64819 0.56396,0 0,-1.09497 0.85694,0 0,1.09497 1.17553,0 0,0.64819 -1.17553,0 0,1.91162 q 0,0.3003 0.10254,0.42115 0.1062,0.11718 0.32226,0.11718 0.2417,0 0.60059,-0.17211 l 0.21972,0.65917 z" />
        <path
           id="path3645"
           style=""
           d="m 164.45789,916.83679 q -0.42847,0.52368 -1.31836,0.52368 -0.42115,0 -0.73975,-0.16113 -0.3186,-0.16113 -0.49072,-0.43945 -0.17212,-0.28198 -0.17212,-0.63721 0,-0.54932 0.39551,-0.86792 0.39917,-0.32226 1.11328,-0.32959 l 1.20483,0 0,-0.12085 q 0,-0.38086 -0.24536,-0.5896 -0.2417,-0.2124 -0.70679,-0.2124 -0.57861,0 -1.17553,0.40283 l -0.35523,-0.60058 q 0.45777,-0.271 0.82031,-0.38453 0.36621,-0.11718 0.89722,-0.11718 0.76538,0 1.18652,0.37353 0.42115,0.36987 0.42847,1.02905 l 0.007,2.61841 -0.84961,0 0,-0.48706 z m -1.13892,-0.15747 q 0.45776,0 0.77637,-0.2124 0.3186,-0.21607 0.35522,-0.54566 l 0,-0.36621 -1.08032,0 q -0.42847,0 -0.62622,0.12452 -0.19776,0.12085 -0.19776,0.40649 0,0.271 0.20508,0.43213 0.20874,0.16113 0.56763,0.16113 z" />
        <path
           id="path3647"
           style=""
           d="m 166.46106,917.32385 0,-3.9917 0.85693,0 0,3.9917 -0.85693,0 z m 0.4248,-5.65429 q 0.21973,0 0.36255,0.14648 0.14283,0.14648 0.14283,0.3772 0,0.22339 -0.14283,0.36987 -0.14282,0.14648 -0.36255,0.14648 -0.21606,0 -0.35888,-0.14282 -0.14282,-0.14648 -0.14282,-0.37353 0,-0.23072 0.14282,-0.3772 0.14282,-0.14648 0.35888,-0.14648 z" />
        <path
           id="path3649"
           style=""
           d="m 170.91785,913.30286 q 0.6958,0 1.09131,0.41015 0.3955,0.41016 0.3955,1.12793 l 0,2.48291 -0.86425,0 0,-2.24121 q 0,-0.45044 -0.25635,-0.71045 -0.25269,-0.26001 -0.70313,-0.26001 -0.47973,0.007 -0.78369,0.30762 -0.30395,0.30029 -0.3479,0.78003 l 0,2.12402 -0.86426,0 0,-3.9917 0.86426,0 0,0.76538 q 0.40649,-0.79467 1.46851,-0.79467 z" />
        <path
           id="path3651"
           style=""
           d="m 174.74475,913.29553 q 0.38086,0 0.75073,0.10987 0.37354,0.10986 0.64453,0.29663 l -0.31494,0.6372 q -0.26367,-0.16479 -0.57495,-0.25634 -0.31128,-0.0952 -0.57495,-0.0952 -0.271,0 -0.42847,0.0989 -0.1538,0.0952 -0.1538,0.29663 0,0.20141 0.1831,0.30762 0.18311,0.1062 0.61157,0.2417 0.4065,0.12084 0.67017,0.24169 0.26733,0.11719 0.45776,0.35889 0.19043,0.23804 0.19043,0.62988 0,0.58594 -0.43945,0.8899 -0.43945,0.30029 -1.09131,0.30029 -0.45044,0 -0.88257,-0.14648 -0.42846,-0.14649 -0.72143,-0.4065 l 0.30761,-0.61523 q 0.25635,0.22339 0.62622,0.35888 0.36988,0.1355 0.71045,0.1355 0.29297,0 0.47242,-0.10254 0.17944,-0.1062 0.17944,-0.32593 0,-0.16479 -0.10986,-0.27099 -0.10987,-0.10986 -0.26734,-0.17212 -0.15747,-0.0659 -0.45776,-0.15747 -0.39917,-0.12085 -0.64819,-0.23438 -0.24903,-0.11718 -0.43213,-0.34423 -0.17945,-0.23072 -0.17945,-0.61158 0,-0.57129 0.42115,-0.86792 0.42114,-0.29663 1.05102,-0.29663 z" />
      </g>
      <rect
         style="fill:none;fill-opacity:1;stroke:none;stroke-width:3;stroke-linecap:round;stroke-linejoin:round;stroke-miterlimit:4;stroke-dasharray:none;stroke-dashoffset:0;stroke-opacity:1"
         id="rect3607"
         width="400"
         height="176"
         x="0"
         y="876.36218" />
      <path
         id="path3621"
         d="m 233.64645,908.00857 54,0 0,66.00003"
         style="display:inline;fill:none;fill-rule:evenodd;stroke:#00a7d0;stroke-width:2;stroke-linecap:butt;stroke-linejoin:miter;stroke-miterlimit:4;stroke-dasharray:none;stroke-opacity:1;marker-end:url(#marker4659)" />
      <g
         id="text3623"
         style="font-style:normal;font-variant:normal;font-weight:normal;font-stretch:normal;font-size:7.5px;line-height:125%;font-family:Montserrat;-inkscape-font-specification:Montserrat;text-align:center;letter-spacing:0px;word-spacing:0px;text-anchor:middle;display:inline;fill:#00a7d0;fill-opacity:1;stroke:none;stroke-width:1px;stroke-linecap:butt;stroke-linejoin:miter;stroke-opacity:1">
        <path
           id="path3593"
           style=""
           d="m 247.8988,913.30286 q 0.69947,0 1.09131,0.41015 0.39551,0.41016 0.39551,1.12793 l 0,2.48291 -0.86426,0 0,-2.24121 q 0,-0.45044 -0.25635,-0.71045 -0.25268,-0.26001 -0.70312,-0.26001 -0.52368,0.007 -0.8313,0.35889 -0.30762,0.3479 -0.30762,0.88623 l 0,1.96655 -0.86425,0 0,-5.5664 0.86425,0 0,2.35473 q 0.41382,-0.80932 1.47583,-0.80932 z" />
        <path
           id="path3595"
           style=""
           d="m 252.25671,913.30286 q 0.60791,0 1.08033,0.25634 0.47241,0.25635 0.73242,0.71412 0.26367,0.4541 0.26367,1.05468 0,0.59326 -0.26367,1.05469 -0.26001,0.46143 -0.73242,0.71777 -0.47242,0.25269 -1.08033,0.25269 -0.61523,0 -1.08764,-0.25269 -0.47241,-0.25634 -0.73609,-0.71777 -0.26001,-0.46143 -0.26001,-1.05469 0,-0.60058 0.26001,-1.05468 0.26368,-0.45777 0.73609,-0.71412 0.47241,-0.25634 1.08764,-0.25634 z m 0,0.7434 q -0.53833,0 -0.88256,0.36255 -0.34058,0.35889 -0.34058,0.92652 0,0.57861 0.34058,0.94116 0.34423,0.35889 0.88256,0.35889 0.53833,0 0.87525,-0.35889 0.34057,-0.36255 0.34057,-0.94116 0,-0.57129 -0.34423,-0.93018 -0.34058,-0.35889 -0.87159,-0.35889 z" />
        <path
           id="path3597"
           style=""
           d="m 255.27063,917.32385 0,-5.5664 0.86426,0 0,5.5664 -0.86426,0 z" />
        <path
           id="path3599"
           style=""
           d="m 259.15613,913.30286 q 0.60791,0 1.08032,0.25634 0.47241,0.25635 0.73242,0.71412 0.26367,0.4541 0.26367,1.05468 0,0.59326 -0.26367,1.05469 -0.26001,0.46143 -0.73242,0.71777 -0.47241,0.25269 -1.08032,0.25269 -0.61524,0 -1.08765,-0.25269 -0.47241,-0.25634 -0.73608,-0.71777 -0.26001,-0.46143 -0.26001,-1.05469 0,-0.60058 0.26001,-1.05468 0.26367,-0.45777 0.73608,-0.71412 0.47241,-0.25634 1.08765,-0.25634 z m 0,0.7434 q -0.53833,0 -0.88257,0.36255 -0.34058,0.35889 -0.34058,0.92652 0,0.57861 0.34058,0.94116 0.34424,0.35889 0.88257,0.35889 0.53833,0 0.87524,-0.35889 0.34058,-0.36255 0.34058,-0.94116 0,-0.57129 -0.34424,-0.93018 -0.34058,-0.35889 -0.87158,-0.35889 z" />
        <path
           id="path3601"
           style=""
           d="m 266.45837,916.83679 q -0.42846,0.52368 -1.31836,0.52368 -0.42114,0 -0.73974,-0.16113 -0.3186,-0.16113 -0.49072,-0.43945 -0.17212,-0.28198 -0.17212,-0.63721 0,-0.54932 0.3955,-0.86792 0.39917,-0.32226 1.11329,-0.32959 l 1.20483,0 0,-0.12085 q 0,-0.38086 -0.24536,-0.5896 -0.2417,-0.2124 -0.70679,-0.2124 -0.57861,0 -1.17554,0.40283 l -0.35522,-0.60058 q 0.45776,-0.271 0.82031,-0.38453 0.36621,-0.11718 0.89722,-0.11718 0.76538,0 1.18652,0.37353 0.42114,0.36987 0.42847,1.02905 l 0.007,2.61841 -0.84961,0 0,-0.48706 z m -1.13891,-0.15747 q 0.45776,0 0.77637,-0.2124 0.3186,-0.21607 0.35522,-0.54566 l 0,-0.36621 -1.08032,0 q -0.42847,0 -0.62622,0.12452 -0.19776,0.12085 -0.19776,0.40649 0,0.271 0.20508,0.43213 0.20874,0.16113 0.56763,0.16113 z" />
        <path
           id="path3603"
           style=""
           d="m 270.75769,913.30286 q 0.5603,0 0.99243,0.25634 0.43213,0.25635 0.67017,0.72144 0.2417,0.46143 0.2417,1.06201 0,0.59326 -0.23804,1.05103 -0.23437,0.45776 -0.66284,0.71045 -0.42847,0.24902 -0.98877,0.24902 -0.47241,0 -0.83496,-0.18311 -0.35889,-0.1831 -0.57495,-0.53466 l 0,2.14233 -0.86426,0 0,-5.44556 0.86426,0 0,0.69214 q 0.21606,-0.35156 0.57129,-0.53467 0.35888,-0.18676 0.82397,-0.18676 z m -0.17944,3.31421 q 0.35156,0 0.62622,-0.1648 0.27832,-0.16479 0.43213,-0.46143 0.15381,-0.30029 0.15381,-0.67749 0,-0.36621 -0.15381,-0.65918 -0.15381,-0.29296 -0.43213,-0.46142 -0.27466,-0.16846 -0.62622,-0.16846 -0.35157,0 -0.62989,0.1648 -0.27832,0.16479 -0.43212,0.46142 -0.15381,0.29663 -0.15381,0.66284 0,0.57862 0.34057,0.94117 0.34058,0.36255 0.87525,0.36255 z" />
        <path
           id="path3605"
           style=""
           d="m 275.85535,913.30286 q 0.5603,0 0.99243,0.25634 0.43213,0.25635 0.67016,0.72144 0.2417,0.46143 0.2417,1.06201 0,0.59326 -0.23803,1.05103 -0.23438,0.45776 -0.66285,0.71045 -0.42846,0.24902 -0.98876,0.24902 -0.47242,0 -0.83497,-0.18311 -0.35888,-0.1831 -0.57495,-0.53466 l 0,2.14233 -0.86425,0 0,-5.44556 0.86425,0 0,0.69214 q 0.21607,-0.35156 0.57129,-0.53467 0.35889,-0.18676 0.82398,-0.18676 z m -0.17945,3.31421 q 0.35157,0 0.62622,-0.1648 0.27832,-0.16479 0.43213,-0.46143 0.15381,-0.30029 0.15381,-0.67749 0,-0.36621 -0.15381,-0.65918 -0.15381,-0.29296 -0.43213,-0.46142 -0.27465,-0.16846 -0.62622,-0.16846 -0.35156,0 -0.62988,0.1648 -0.27832,0.16479 -0.43213,0.46142 -0.15381,0.29663 -0.15381,0.66284 0,0.57862 0.34058,0.94117 0.34058,0.36255 0.87524,0.36255 z" />
        <path
           id="path3607"
           style=""
           d="m 278.69348,917.32385 0,-5.5664 0.86426,0 0,5.5664 -0.86426,0 z" />
        <path
           id="path3609"
           style=""
           d="m 282.43616,917.87317 q -0.18677,0.47241 -0.51636,0.70679 -0.32959,0.23803 -0.78003,0.23803 -0.271,0 -0.49438,-0.0842 -0.21973,-0.0842 -0.42847,-0.25634 l 0.36621,-0.66651 q 0.14282,0.1062 0.26367,0.15015 0.12085,0.0439 0.25635,0.0439 0.40649,0 0.60425,-0.43945 l 0.1355,-0.30029 -1.64795,-3.93311 0.88989,0 1.19385,3.02491 1.10962,-3.02491 0.86425,0 -1.8164,4.54102 z" />
      </g>
      <g
         transform="translate(237.44851,-272.78448)"
         id="g3627">
        <rect
           y="1149.1466"
           x="-61.448505"
           height="64"
           width="64"
           id="rect3629"
           style="display:inline;fill:none;fill-opacity:1;stroke:none;stroke-width:1.5;stroke-miterlimit:4;stroke-dasharray:none;stroke-dashoffset:0;stroke-opacity:1" />
        <path
           id="path3631"
           style="display:inline;fill:#ffffff;fill-opacity:1;fill-rule:evenodd;stroke:none;stroke-width:3;stroke-linecap:butt;stroke-linejoin:miter;stroke-miterlimit:4;stroke-dasharray:none;stroke-opacity:1"
           d="m -12.963768,1169.8028 -10,-10.0001 m -22.999997,43.0001 0,-43.0001 22.999997,0 10,10.0001 0,33 z" />
        <path
           id="path3633"
           style="display:inline;fill:none;fill-rule:evenodd;stroke:#00a7d0;stroke-width:3;stroke-linecap:butt;stroke-linejoin:miter;stroke-miterlimit:4;stroke-dasharray:none;stroke-opacity:1"
           d="m -12.948507,1169.6466 -10,0 0,-10.0001 m -22.999997,43.0001 0,-43.0001 22.999997,0 10,10.0001 0,33 z" />
        <g
           style="font-style:normal;font-variant:normal;font-weight:normal;font-stretch:normal;font-size:27.29878807px;line-height:125%;font-family:Montserrat;-inkscape-font-specification:Montserrat;text-align:start;letter-spacing:0px;word-spacing:0px;text-anchor:start;display:inline;fill:#00a7d0;fill-opacity:1;stroke:none;stroke-width:1px;stroke-linecap:butt;stroke-linejoin:miter;stroke-opacity:1"
           id="g3635" />
      </g>
      <g
         id="text3641"
         style="font-style:normal;font-variant:normal;font-weight:normal;font-stretch:normal;font-size:15px;line-height:125%;font-family:Montserrat;-inkscape-font-specification:Montserrat;text-align:center;letter-spacing:0px;word-spacing:0px;text-anchor:middle;display:inline;fill:#00a7d0;fill-opacity:1;stroke:none;stroke-width:1px;stroke-linecap:butt;stroke-linejoin:miter;stroke-opacity:1">
        <path
           id="path3569"
           style=""
           d="m 242.94141,1047.7372 4.75341,-13.9966 1.47217,0 -4.75342,13.9966 -1.47216,0 z" />
        <path
           id="path3571"
           style=""
           d="m 252.77051,1037.9374 q 1.88965,0 2.82715,1.0693 0.9375,1.062 0.9375,2.9956 0,0.1978 -0.0293,0.6446 l -6.03516,0 q 0.21241,0.9301 0.87159,1.4648 0.65917,0.5347 1.604,0.5347 0.64453,0 1.23047,-0.2417 0.58594,-0.2417 1.01806,-0.6885 l 0.91553,0.9741 q -0.60058,0.6445 -1.44287,0.9961 -0.83496,0.3516 -1.85303,0.3516 -1.21582,0 -2.13867,-0.5054 -0.92285,-0.5127 -1.43555,-1.4282 -0.50537,-0.9156 -0.50537,-2.1021 0,-1.1865 0.50537,-2.102 0.5127,-0.9229 1.43555,-1.4429 0.92285,-0.52 2.09473,-0.52 z m 2.23388,3.4497 q -0.0439,-0.9595 -0.64453,-1.5088 -0.60058,-0.5566 -1.5747,-0.5566 -0.94483,0 -1.56739,0.5566 -0.62256,0.5493 -0.77636,1.5088 l 4.56298,0 z" />
        <path
           id="path3574"
           style=""
           d="m 262.81934,1045.4667 q -0.9961,0.5859 -1.97022,0.5859 -0.97412,0 -1.604,-0.5859 -0.62989,-0.586 -0.62989,-1.7359 l 0,-4.1381 -1.12793,0 0,-1.2964 1.12793,0 0,-2.19 1.71387,0 0,2.19 2.35108,0 0,1.2964 -2.35108,0 0,3.8232 q 0,0.6006 0.20508,0.8423 0.2124,0.2344 0.64453,0.2344 0.4834,0 1.20117,-0.3443 l 0.43946,1.3184 z" />
        <path
           id="path3576"
           style=""
           d="m 267.58008,1037.9374 q 1.06201,0 1.89697,0.3369 0.84229,0.3369 1.39893,0.9668 l -0.94483,1.1133 q -0.87158,-0.9009 -2.21924,-0.9009 -1.06201,0 -1.75048,0.7104 -0.68116,0.7032 -0.68116,1.8384 0,1.1279 0.66651,1.8384 0.6665,0.7104 1.70654,0.7104 1.53076,0 2.35107,-0.9594 l 0.95948,0.9594 q -0.542,0.7178 -1.40625,1.106 -0.85694,0.3809 -1.97754,0.3809 -1.17188,0 -2.0874,-0.5054 -0.91553,-0.5127 -1.42823,-1.4282 -0.50537,-0.9156 -0.50537,-2.1021 0,-1.2012 0.50537,-2.1167 0.5127,-0.9228 1.42823,-1.4355 0.91552,-0.5127 2.0874,-0.5127 z" />
        <path
           id="path3578"
           style=""
           d="m 271.18359,1047.7372 4.75342,-13.9966 1.47217,0 -4.75342,13.9966 -1.47217,0 z" />
        <path
           id="path3580"
           style=""
           d="m 282.31641,1037.9374 q 1.1206,0 1.98486,0.5127 0.86426,0.5127 1.34033,1.4428 0.4834,0.9229 0.4834,2.1241 0,1.1865 -0.47607,2.102 -0.46875,0.9155 -1.32569,1.4209 -0.85693,0.4981 -1.97754,0.4981 -0.94482,0 -1.66992,-0.3662 -0.71777,-0.3663 -1.1499,-1.0694 l 0,4.2847 -1.72852,0 0,-10.8911 1.72852,0 0,1.3842 q 0.43213,-0.7031 1.14258,-1.0693 0.71777,-0.3735 1.64795,-0.3735 z m -0.35889,6.6284 q 0.70312,0 1.25244,-0.3296 0.55664,-0.3296 0.86426,-0.9228 0.30762,-0.6006 0.30762,-1.355 0,-0.7324 -0.30762,-1.3184 -0.30762,-0.5859 -0.86426,-0.9228 -0.54932,-0.337 -1.25244,-0.337 -0.70313,0 -1.25977,0.3296 -0.55664,0.3296 -0.86425,0.9229 -0.30762,0.5933 -0.30762,1.3257 0,1.1572 0.68115,1.8823 0.68115,0.7251 1.75049,0.7251 z" />
        <path
           id="path3582"
           style=""
           d="m 292.70215,1045.0052 q -0.85694,1.0474 -2.63672,1.0474 -0.84229,0 -1.47949,-0.3223 -0.63721,-0.3222 -0.98145,-0.8789 -0.34424,-0.5639 -0.34424,-1.2744 0,-1.0986 0.79102,-1.7358 0.79834,-0.6445 2.22656,-0.6592 l 2.40967,0 0,-0.2417 q 0,-0.7617 -0.49072,-1.1792 -0.4834,-0.4248 -1.41358,-0.4248 -1.15722,0 -2.35107,0.8057 l -0.71045,-1.2012 q 0.91553,-0.542 1.64062,-0.769 0.73243,-0.2344 1.79444,-0.2344 1.53076,0 2.37305,0.747 0.84228,0.7398 0.85693,2.0582 l 0.0146,5.2368 -1.69922,0 0,-0.9742 z m -2.27783,-0.3149 q 0.91552,0 1.55273,-0.4248 0.63721,-0.4321 0.71045,-1.0913 l 0,-0.7324 -2.16064,0 q -0.85694,0 -1.25245,0.249 -0.3955,0.2417 -0.3955,0.813 0,0.542 0.41015,0.8642 0.41748,0.3223 1.13526,0.3223 z" />
        <path
           id="path3584"
           style=""
           d="m 299.09619,1037.9227 q 0.76172,0 1.50147,0.2198 0.74707,0.2197 1.28906,0.5932 l -0.62988,1.2744 q -0.52735,-0.3296 -1.14991,-0.5127 -0.62256,-0.1904 -1.1499,-0.1904 -0.54199,0 -0.85693,0.1978 -0.30762,0.1904 -0.30762,0.5932 0,0.4029 0.36621,0.6153 0.36621,0.2124 1.22315,0.4834 0.81298,0.2417 1.34033,0.4834 0.53467,0.2343 0.91553,0.7177 0.38085,0.4761 0.38085,1.2598 0,1.1719 -0.8789,1.7798 -0.87891,0.6006 -2.18262,0.6006 -0.90088,0 -1.76514,-0.293 -0.85693,-0.293 -1.44287,-0.813 l 0.61524,-1.2305 q 0.51269,0.4468 1.25244,0.7178 0.73975,0.271 1.4209,0.271 0.58594,0 0.94482,-0.2051 0.35889,-0.2124 0.35889,-0.6518 0,-0.3296 -0.21973,-0.542 -0.21972,-0.2197 -0.53467,-0.3443 -0.31494,-0.1318 -0.91552,-0.3149 -0.79834,-0.2417 -1.29639,-0.4687 -0.49805,-0.2344 -0.86426,-0.6885 -0.35888,-0.4615 -0.35888,-1.2232 0,-1.1425 0.84228,-1.7358 0.84229,-0.5933 2.10205,-0.5933 z" />
        <path
           id="path3586"
           style=""
           d="m 306.15674,1037.9227 q 0.76172,0 1.50146,0.2198 0.74707,0.2197 1.28907,0.5932 l -0.62989,1.2744 q -0.52734,-0.3296 -1.1499,-0.5127 -0.62256,-0.1904 -1.1499,-0.1904 -0.54199,0 -0.85694,0.1978 -0.30761,0.1904 -0.30761,0.5932 0,0.4029 0.36621,0.6153 0.36621,0.2124 1.22314,0.4834 0.81299,0.2417 1.34033,0.4834 0.53467,0.2343 0.91553,0.7177 0.38086,0.4761 0.38086,1.2598 0,1.1719 -0.8789,1.7798 -0.87891,0.6006 -2.18262,0.6006 -0.90088,0 -1.76514,-0.293 -0.85693,-0.293 -1.44287,-0.813 l 0.61523,-1.2305 q 0.5127,0.4468 1.25245,0.7178 0.73974,0.271 1.42089,0.271 0.58594,0 0.94483,-0.2051 0.35889,-0.2124 0.35889,-0.6518 0,-0.3296 -0.21973,-0.542 -0.21973,-0.2197 -0.53467,-0.3443 -0.31494,-0.1318 -0.91553,-0.3149 -0.79834,-0.2417 -1.29638,-0.4687 -0.49805,-0.2344 -0.86426,-0.6885 -0.35889,-0.4615 -0.35889,-1.2232 0,-1.1425 0.84229,-1.7358 0.84228,-0.5933 2.10205,-0.5933 z" />
        <path
           id="path3588"
           style=""
           d="m 318.271,1045.9794 -2.02149,-5.9107 -2.02881,5.9107 -1.77246,0 -2.93701,-7.9834 1.77246,0 2.06543,6.2768 2.01416,-6.2768 1.77979,0 2.0288,6.2768 2.03614,-6.2768 1.75781,0 -2.90771,7.9834 -1.78711,0 z" />
        <path
           id="path3590"
           style=""
           d="m 331.46924,1045.9794 -1.72119,0 0,-1.3623 q -0.43213,0.7031 -1.14991,1.0693 -0.71044,0.3662 -1.65527,0.3662 -1.14258,0 -2.00683,-0.5127 -0.85694,-0.52 -1.34034,-1.4502 -0.47607,-0.9302 -0.47607,-2.1313 0,-1.1865 0.47607,-2.1021 0.4834,-0.9155 1.34034,-1.4209 0.86425,-0.5127 1.97753,-0.5127 0.95948,0 1.66993,0.3809 0.71045,0.3735 1.16455,1.0766 l 0,-4.5336 1.72119,0 0,11.1328 z m -4.16748,-1.3623 q 1.08398,0 1.76513,-0.7251 0.68116,-0.7325 0.68116,-1.875 0,-1.1573 -0.68116,-1.8897 -0.68115,-0.7324 -1.76513,-0.7324 -1.07666,0 -1.76514,0.7397 -0.68115,0.7325 -0.6958,1.8824 0.0147,1.1425 0.6958,1.875 0.68848,0.7251 1.76514,0.7251 z" />
      </g>
      <g
         id="g4653"
         transform="translate(256,-16.000023)">
        <rect
           style="display:inline;fill:none;fill-opacity:1;stroke:none;stroke-width:1.5;stroke-miterlimit:4;stroke-dasharray:none;stroke-dashoffset:0;stroke-opacity:1"
           id="rect3613-6"
           width="64"
           height="64"
           x="0"
           y="988.36218" />
        <path
           d="m 50.997707,1030.3622 c -9e-6,5.5216 -7.401,9.9977 -18.997707,9.9977 -11.596707,0 -18.997698,-4.4761 -18.997707,-9.9977 l 0,-20 c 9e-6,-5.5216 7.401,-9.9977 18.997707,-9.9977 11.596707,0 18.997698,4.4761 18.997707,9.9977 z"
           style="display:inline;opacity:1;fill:#ffffff;fill-opacity:1;stroke:#00a7d0;stroke-width:3.00458503;stroke-linecap:round;stroke-linejoin:miter;stroke-miterlimit:4;stroke-dasharray:none;stroke-opacity:1"
           id="path4650" />
        <path
           id="ellipse4641"
           d="m 50.997707,1010.3622 c -9e-6,5.5216 -7.401,9.9977 -18.997707,9.9977 -11.596707,0 -18.997698,-4.4761 -18.997707,-9.9977 9e-6,-5.5216 7.401,-9.9977 18.997707,-9.9977 11.596707,0 18.997698,4.4761 18.997707,9.9977 z"
           style="display:inline;opacity:1;fill:none;fill-opacity:1;stroke:#00a7d0;stroke-width:3.00458503;stroke-linecap:round;stroke-linejoin:miter;stroke-miterlimit:4;stroke-dasharray:none;stroke-opacity:1" />
        <path
           style="display:inline;opacity:1;fill:none;fill-opacity:1;stroke:#00a7d0;stroke-width:3.00458503;stroke-linecap:round;stroke-linejoin:miter;stroke-miterlimit:4;stroke-dasharray:none;stroke-opacity:1"
           d="m 50.997707,1020.3622 c -9e-6,5.5216 -7.401,9.9977 -18.997707,9.9977 -11.596707,0 -18.997698,-4.4761 -18.997707,-9.9977"
           id="path4645" />
      </g>
    </g>
  </g>
</svg>
