<?xml version="1.0" encoding="UTF-8" standalone="no"?>
<svg
   xmlns:dc="http://purl.org/dc/elements/1.1/"
   xmlns:cc="http://creativecommons.org/ns#"
   xmlns:rdf="http://www.w3.org/1999/02/22-rdf-syntax-ns#"
   xmlns:svg="http://www.w3.org/2000/svg"
   xmlns="http://www.w3.org/2000/svg"
   version="1.1"
   id="svg2"
   viewBox="0 0 400 176"
   height="176"
   width="400">
  <defs
     id="defs4">
    <marker
       orient="auto"
       refY="0"
       refX="0"
       id="marker4659"
       style="overflow:visible">
      <path
         id="path4661"
         style="fill:#00a7d0;fill-opacity:1;fill-rule:evenodd;stroke:#00a7d0;stroke-width:0.625;stroke-linejoin:round;stroke-opacity:1"
         d="M 8.7185878,4.0337352 -2.2072895,0.01601326 8.7185884,-4.0017078 c -1.7454984,2.3720609 -1.7354408,5.6174519 -6e-7,8.035443 z"
         transform="matrix(-0.3,0,0,-0.3,0.69,0)" />
    </marker>
    <marker
       style="overflow:visible"
       id="marker6022"
       refX="0"
       refY="0"
       orient="auto">
      <path
         transform="matrix(-0.3,0,0,-0.3,0.69,0)"
         d="M 8.7185878,4.0337352 -2.2072895,0.01601326 8.7185884,-4.0017078 c -1.7454984,2.3720609 -1.7354408,5.6174519 -6e-7,8.035443 z"
         style="fill:#00a7d0;fill-opacity:1;fill-rule:evenodd;stroke:#00a7d0;stroke-width:0.625;stroke-linejoin:round;stroke-opacity:1"
         id="path6024" />
    </marker>
    <marker
       orient="auto"
       refY="0"
       refX="0"
       id="marker5128"
       style="overflow:visible">
      <path
         id="path5130"
         style="fill:#00a7d0;fill-opacity:1;fill-rule:evenodd;stroke:#00a7d0;stroke-width:0.625;stroke-linejoin:round;stroke-opacity:1"
         d="M 8.7185878,4.0337352 -2.2072895,0.01601326 8.7185884,-4.0017078 c -1.7454984,2.3720609 -1.7354408,5.6174519 -6e-7,8.035443 z"
         transform="matrix(-0.3,0,0,-0.3,0.69,0)" />
    </marker>
    <marker
       style="overflow:visible"
       id="marker4800"
       refX="0"
       refY="0"
       orient="auto">
      <path
         transform="matrix(-0.3,0,0,-0.3,0.69,0)"
         d="M 8.7185878,4.0337352 -2.2072895,0.01601326 8.7185884,-4.0017078 c -1.7454984,2.3720609 -1.7354408,5.6174519 -6e-7,8.035443 z"
         style="fill:#00a7d0;fill-opacity:1;fill-rule:evenodd;stroke:#00a7d0;stroke-width:0.625;stroke-linejoin:round;stroke-opacity:1"
         id="path4802" />
    </marker>
    <marker
       orient="auto"
       refY="0"
       refX="0"
       id="marker4664"
       style="overflow:visible">
      <path
         id="path4666"
         style="fill:#00a7d0;fill-opacity:1;fill-rule:evenodd;stroke:#00a7d0;stroke-width:0.625;stroke-linejoin:round;stroke-opacity:1"
         d="M 8.7185878,4.0337352 -2.2072895,0.01601326 8.7185884,-4.0017078 c -1.7454984,2.3720609 -1.7354408,5.6174519 -6e-7,8.035443 z"
         transform="matrix(-0.3,0,0,-0.3,0.69,0)" />
    </marker>
    <marker
       style="overflow:visible"
       id="marker4565"
       refX="0"
       refY="0"
       orient="auto">
      <path
         transform="matrix(-0.3,0,0,-0.3,0.69,0)"
         d="M 8.7185878,4.0337352 -2.2072895,0.01601326 8.7185884,-4.0017078 c -1.7454984,2.3720609 -1.7354408,5.6174519 -6e-7,8.035443 z"
         style="fill:#00a7d0;fill-opacity:1;fill-rule:evenodd;stroke:#00a7d0;stroke-width:0.625;stroke-linejoin:round;stroke-opacity:1"
         id="path4567" />
    </marker>
    <marker
       style="overflow:visible"
       id="Arrow2Send"
       refX="0"
       refY="0"
       orient="auto">
      <path
         transform="matrix(-0.3,0,0,-0.3,0.69,0)"
         d="M 8.7185878,4.0337352 -2.2072895,0.01601326 8.7185884,-4.0017078 c -1.7454984,2.3720609 -1.7354408,5.6174519 -6e-7,8.035443 z"
         style="fill:#00a7d0;fill-opacity:1;fill-rule:evenodd;stroke:#00a7d0;stroke-width:0.625;stroke-linejoin:round;stroke-opacity:1"
         id="path4320" />
    </marker>
    <marker
       style="overflow:visible"
       id="marker4980"
       refX="0"
       refY="0"
       orient="auto">
      <path
         transform="matrix(-0.2,0,0,-0.2,-1.2,0)"
         style="fill:#000000;fill-opacity:1;fill-rule:evenodd;stroke:#000000;stroke-width:1pt;stroke-opacity:1"
         d="M 0,0 5,-5 -12.5,0 5,5 0,0 Z"
         id="path4982" />
    </marker>
    <marker
       style="overflow:visible"
       id="Arrow2Send-6"
       refX="0"
       refY="0"
       orient="auto">
      <path
         transform="matrix(-0.3,0,0,-0.3,0.69,0)"
         d="M 8.7185878,4.0337352 -2.2072895,0.01601326 8.7185884,-4.0017078 c -1.7454984,2.3720609 -1.7354408,5.6174519 -6e-7,8.035443 z"
         style="fill:#00a7d0;fill-opacity:1;fill-rule:evenodd;stroke:#00a7d0;stroke-width:0.625;stroke-linejoin:round;stroke-opacity:1"
         id="path4320-4" />
    </marker>
    <marker
       style="overflow:visible"
       id="Arrow2Send-9"
       refX="0"
       refY="0"
       orient="auto">
      <path
         transform="matrix(-0.3,0,0,-0.3,0.69,0)"
         d="M 8.7185878,4.0337352 -2.2072895,0.01601326 8.7185884,-4.0017078 c -1.7454984,2.3720609 -1.7354408,5.6174519 -6e-7,8.035443 z"
         style="fill:#00a7d0;fill-opacity:1;fill-rule:evenodd;stroke:#00a7d0;stroke-width:0.625;stroke-linejoin:round;stroke-opacity:1"
         id="path4320-1" />
    </marker>
  </defs>
  <metadata
     id="metadata7">
    <rdf:RDF>
      <cc:Work
         rdf:about="">
        <dc:format>image/svg+xml</dc:format>
        <dc:type
           rdf:resource="http://purl.org/dc/dcmitype/StillImage" />
        <dc:title></dc:title>
      </cc:Work>
    </rdf:RDF>
  </metadata>
  <g
     style="display:inline"
     transform="translate(0,-876.36216)"
     id="layer1">
    <g
       transform="translate(0,-750.00002)"
       id="g3540">
      <g
         id="g3567">
        <g
           id="g3542"
           transform="translate(-72.540085,824.40901)"
           style="display:inline">
          <path
             id="path3544"
             d="m 104.54072,859.38614 22.02499,-12.7165 0,-25.43302 -22.02499,-12.7165 -22.02626,12.7165 0,25.43302 z"
             style="fill:#ffffff;fill-opacity:1;fill-rule:evenodd;stroke:#00a7d0;stroke-width:2.99999976;stroke-linecap:butt;stroke-linejoin:miter;stroke-miterlimit:4;stroke-dasharray:none;stroke-opacity:1" />
          <path
             style="fill:none;fill-rule:evenodd;stroke:#00a7d0;stroke-width:2.99999976;stroke-linecap:butt;stroke-linejoin:miter;stroke-miterlimit:4;stroke-dasharray:none;stroke-opacity:1"
             d="m 104.54072,859.38614 -6.4e-4,-25.43301 22.02563,-12.71651 -22.02563,12.71651 -22.02562,-12.71651 22.02562,12.71651 z"
             id="path3546" />
          <rect
             y="801.95312"
             x="72.540085"
             height="64"
             width="64"
             id="rect3548"
             style="fill:none;fill-opacity:1;stroke:none;stroke-width:1.5;stroke-miterlimit:4;stroke-dasharray:none;stroke-dashoffset:0;stroke-opacity:1" />
        </g>
        <g
           id="g3550"
           transform="translate(-8.5400846,920.40902)"
           style="display:inline">
          <path
             id="path3552"
             d="m 104.54072,859.38614 22.02499,-12.7165 0,-25.43302 -22.02499,-12.7165 -22.02626,12.7165 0,25.43302 z"
             style="fill:#ffffff;fill-opacity:1;fill-rule:evenodd;stroke:#00a7d0;stroke-width:2.99999976;stroke-linecap:butt;stroke-linejoin:miter;stroke-miterlimit:4;stroke-dasharray:none;stroke-opacity:1" />
          <path
             style="fill:none;fill-rule:evenodd;stroke:#00a7d0;stroke-width:2.99999976;stroke-linecap:butt;stroke-linejoin:miter;stroke-miterlimit:4;stroke-dasharray:none;stroke-opacity:1"
             d="m 104.54072,859.38614 -6.4e-4,-25.43301 22.02563,-12.71651 -22.02563,12.71651 -22.02562,-12.71651 22.02562,12.71651 z"
             id="path3554" />
          <rect
             y="801.95312"
             x="72.540085"
             height="64"
             width="64"
             id="rect3556"
             style="fill:none;fill-opacity:1;stroke:none;stroke-width:1.5;stroke-miterlimit:4;stroke-dasharray:none;stroke-dashoffset:0;stroke-opacity:1" />
        </g>
        <g
           id="g3558"
           transform="translate(237.44851,541.88961)"
           style="display:inline">
          <rect
             style="display:inline;fill:none;fill-opacity:1;stroke:none;stroke-width:1.5;stroke-miterlimit:4;stroke-dasharray:none;stroke-dashoffset:0;stroke-opacity:1"
             id="rect3560"
             width="64"
             height="64"
             x="-61.448505"
             y="1084.4725" />
          <path
             d="m -12.948507,1104.9726 -10,-10.0001 m -22.999997,43.0001 0,-43.0001 22.999997,0 10,10.0001 0,33 z"
             style="display:inline;fill:#ffffff;fill-opacity:1;fill-rule:evenodd;stroke:none;stroke-width:3;stroke-linecap:butt;stroke-linejoin:miter;stroke-miterlimit:4;stroke-dasharray:none;stroke-opacity:1"
             id="path3562" />
          <path
             id="path3564"
             style="display:inline;fill:none;fill-rule:evenodd;stroke:#00a7d0;stroke-width:3;stroke-linecap:butt;stroke-linejoin:miter;stroke-miterlimit:4;stroke-dasharray:none;stroke-opacity:1"
             d="m -12.948507,1104.9726 -10,0 0,-10.0001 m -22.999997,43.0001 0,-43.0001 22.999997,0 10,10.0001 0,33 z" />
        </g>
        <path
           id="path3574"
           d="m 32,1704.3621 0,49.9997 32,4e-4"
           style="fill:none;fill-rule:evenodd;stroke:#00a7d0;stroke-width:2;stroke-linecap:butt;stroke-linejoin:miter;stroke-miterlimit:4;stroke-dasharray:none;stroke-opacity:1;marker-end:url(#Arrow2Send)" />
        <path
           id="path3576"
           d="m 64,1658.3621 116,0"
           style="fill:none;fill-rule:evenodd;stroke:#00a7d0;stroke-width:2;stroke-linecap:butt;stroke-linejoin:miter;stroke-miterlimit:4;stroke-dasharray:none;stroke-opacity:1;marker-end:url(#marker4565)" />
        <g
           id="text3580"
           style="font-style:normal;font-variant:normal;font-weight:normal;font-stretch:normal;font-size:15px;line-height:125%;font-family:Montserrat;-inkscape-font-specification:Montserrat;text-align:center;letter-spacing:0px;word-spacing:0px;text-anchor:middle;fill:#00a7d0;fill-opacity:1;stroke:none;stroke-width:1px;stroke-linecap:butt;stroke-linejoin:miter;stroke-opacity:1">
          <path
             id="path4762"
             style=""
             d="m 13.619873,1691.6422 q 1.062012,0 1.896973,0.3369 0.842285,0.3369 1.398925,0.9668 l -0.944824,1.1133 q -0.871582,-0.9009 -2.219238,-0.9009 -1.062012,0 -1.750488,0.7105 -0.681153,0.7031 -0.681153,1.8384 0,1.1279 0.666504,1.8383 0.666504,0.7105 1.706543,0.7105 1.530762,0 2.351074,-0.9595 l 0.959473,0.9595 q -0.541992,0.7178 -1.40625,1.1059 -0.856933,0.3809 -1.977539,0.3809 -1.171875,0 -2.087402,-0.5054 -0.915528,-0.5127 -1.428223,-1.4282 -0.505371,-0.9155 -0.505371,-2.102 0,-1.2012 0.505371,-2.1167 0.512695,-0.9229 1.428223,-1.4356 0.915527,-0.5127 2.087402,-0.5127 z" />
          <path
             id="path4764"
             style=""
             d="m 21.910889,1691.6422 q 1.21582,0 2.160644,0.5127 0.944824,0.5127 1.464844,1.4282 0.527344,0.9082 0.527344,2.1094 0,1.1865 -0.527344,2.1094 -0.52002,0.9228 -1.464844,1.4355 -0.944824,0.5054 -2.160644,0.5054 -1.230469,0 -2.175293,-0.5054 -0.944825,-0.5127 -1.472168,-1.4355 -0.52002,-0.9229 -0.52002,-2.1094 0,-1.2012 0.52002,-2.1094 0.527343,-0.9155 1.472168,-1.4282 0.944824,-0.5127 2.175293,-0.5127 z m 0,1.4868 q -1.07666,0 -1.765137,0.7251 -0.681152,0.7178 -0.681152,1.8531 0,1.1572 0.681152,1.8823 0.688477,0.7178 1.765137,0.7178 1.07666,0 1.750488,-0.7178 0.681152,-0.7251 0.681152,-1.8823 0,-1.1426 -0.688476,-1.8604 -0.681153,-0.7178 -1.743164,-0.7178 z" />
          <path
             id="path4766"
             style=""
             d="m 32.531006,1691.6422 q 1.391601,0 2.182617,0.8203 0.791016,0.8203 0.791016,2.2559 l 0,4.9658 -1.728516,0 0,-4.4824 q 0,-0.9009 -0.512695,-1.4209 -0.505371,-0.52 -1.40625,-0.52 -0.959473,0.015 -1.567383,0.6152 -0.60791,0.6006 -0.695801,1.5601 l 0,4.248 -1.728515,0 0,-7.9834 1.728515,0 0,1.5308 q 0.812988,-1.5894 2.937012,-1.5894 z" />
          <path
             id="path4768"
             style=""
             d="m 43.795654,1690.4557 q -0.432129,0 -0.717773,-0.2857 -0.285645,-0.2929 -0.285645,-0.747 0,-0.4615 0.285645,-0.7544 0.285644,-0.293 0.717773,-0.293 0.432129,0 0.717774,0.293 0.285644,0.2929 0.285644,0.7544 0,0.4468 -0.285644,0.7397 -0.278321,0.293 -0.717774,0.293 z m -5.668945,0.769 q 0,-0.9008 0.388184,-1.5234 0.395507,-0.6226 1.02539,-0.9229 0.629883,-0.3003 1.333008,-0.3003 0.856934,0 1.486816,0.3589 l -0.06592,1.5015 q -0.761718,-0.3442 -1.376953,-0.3442 -0.498047,0 -0.791015,0.2563 -0.285645,0.2564 -0.285645,0.8057 l 0,0.9302 2.080078,0 0,1.2963 -2.080078,0 0,6.4014 -1.713867,0 0,-6.4014 -1.047363,0 0,-1.2963 1.047363,0 0,-0.7618 z m 6.525879,0.4761 0,7.9834 -1.706543,0 0,-7.9834 1.706543,0 z" />
          <path
             id="path4770"
             style=""
             d="m 54.401123,1698.9078 q 0,1.1426 -0.512695,1.9776 -0.505371,0.8423 -1.442871,1.2964 -0.9375,0.4541 -2.182618,0.4541 -1.77246,0 -3.317871,-1.0474 l 0.739746,-1.2451 q 0.585938,0.4321 1.186524,0.6518 0.60791,0.2198 1.318359,0.2198 1.142578,0 1.823731,-0.6153 0.681152,-0.6152 0.681152,-1.6479 l 0,-1.0108 q -0.402832,0.6592 -1.07666,1.0108 -0.666504,0.3442 -1.567383,0.3442 -1.062012,0 -1.882324,-0.4834 -0.812988,-0.4907 -1.26709,-1.3623 -0.446777,-0.8716 -0.446777,-2.0141 0,-1.128 0.446777,-1.9849 0.454102,-0.8643 1.26709,-1.333 0.820312,-0.4761 1.882324,-0.4761 0.886231,0 1.560059,0.3589 0.673828,0.3516 1.083984,0.9961 l 0,-1.2964 1.706543,0 0,7.207 z m -4.006348,-0.9668 q 1.010743,0 1.655274,-0.6884 0.644531,-0.6885 0.644531,-1.7652 0,-1.0766 -0.637207,-1.7578 -0.637207,-0.6885 -1.662598,-0.6885 -1.018066,0 -1.662597,0.6812 -0.644532,0.6811 -0.65918,1.7651 0.01465,1.0767 0.651856,1.7652 0.637207,0.6884 1.669921,0.6884 z" />
        </g>
        <g
           id="text3584"
           style="font-style:normal;font-variant:normal;font-weight:normal;font-stretch:normal;font-size:15px;line-height:125%;font-family:Montserrat;-inkscape-font-specification:Montserrat;text-align:center;letter-spacing:0px;word-spacing:0px;text-anchor:middle;display:inline;fill:#00a7d0;fill-opacity:1;stroke:none;stroke-width:1px;stroke-linecap:butt;stroke-linejoin:miter;stroke-opacity:1">
          <path
             id="path4790"
             style=""
             d="m 87.419678,1795.0052 q -0.856934,1.0474 -2.636719,1.0474 -0.842285,0 -1.479492,-0.3223 -0.637207,-0.3222 -0.981446,-0.8789 -0.344238,-0.5639 -0.344238,-1.2744 0,-1.0986 0.791016,-1.7358 0.79834,-0.6445 2.226562,-0.6592 l 2.409668,0 0,-0.2417 q 0,-0.7617 -0.490722,-1.1792 -0.483399,-0.4248 -1.413575,-0.4248 -1.157226,0 -2.351074,0.8057 l -0.710449,-1.2012 q 0.915527,-0.542 1.640625,-0.769 0.732422,-0.2344 1.794434,-0.2344 1.530761,0 2.373046,0.747 0.842286,0.7398 0.856934,2.0582 l 0.01465,5.2368 -1.699218,0 0,-0.9742 z m -2.277832,-0.3149 q 0.915527,0 1.552734,-0.4248 0.637207,-0.4321 0.710449,-1.0913 l 0,-0.7324 -2.160644,0 q -0.856934,0 -1.252442,0.249 -0.395507,0.2417 -0.395507,0.813 0,0.542 0.410156,0.8642 0.41748,0.3223 1.135254,0.3223 z" />
          <path
             id="path4792"
             style=""
             d="m 96.018311,1787.9374 q 1.120605,0 1.984863,0.5127 0.864258,0.5127 1.340332,1.4428 0.483398,0.9229 0.483398,2.1241 0,1.1865 -0.476074,2.102 -0.46875,0.9155 -1.325684,1.4209 -0.856933,0.4981 -1.977539,0.4981 -0.944824,0 -1.669921,-0.3662 -0.717774,-0.3663 -1.149903,-1.0694 l 0,4.2847 -1.728515,0 0,-10.8911 1.728515,0 0,1.3842 q 0.432129,-0.7031 1.142578,-1.0693 0.717774,-0.3735 1.64795,-0.3735 z m -0.358887,6.6284 q 0.703125,0 1.252441,-0.3296 0.556641,-0.3296 0.864258,-0.9228 0.307617,-0.6006 0.307617,-1.355 0,-0.7324 -0.307617,-1.3184 -0.307617,-0.5859 -0.864258,-0.9228 -0.549316,-0.337 -1.252441,-0.337 -0.703125,0 -1.259766,0.3296 -0.55664,0.3296 -0.864258,0.9229 -0.307617,0.5933 -0.307617,1.3257 0,1.1572 0.681153,1.8823 0.681152,0.7251 1.750488,0.7251 z" />
          <path
             id="path4794"
             style=""
             d="m 106.21362,1787.9374 q 1.12061,0 1.98487,0.5127 0.86425,0.5127 1.34033,1.4428 0.4834,0.9229 0.4834,2.1241 0,1.1865 -0.47608,2.102 -0.46875,0.9155 -1.32568,1.4209 -0.85693,0.4981 -1.97754,0.4981 -0.94482,0 -1.66992,-0.3662 -0.71778,-0.3663 -1.1499,-1.0694 l 0,4.2847 -1.72852,0 0,-10.8911 1.72852,0 0,1.3842 q 0.43212,-0.7031 1.14257,-1.0693 0.71778,-0.3735 1.64795,-0.3735 z m -0.35888,6.6284 q 0.70312,0 1.25244,-0.3296 0.55664,-0.3296 0.86426,-0.9228 0.30761,-0.6006 0.30761,-1.355 0,-0.7324 -0.30761,-1.3184 -0.30762,-0.5859 -0.86426,-0.9228 -0.54932,-0.337 -1.25244,-0.337 -0.70313,0 -1.25977,0.3296 -0.55664,0.3296 -0.86426,0.9229 -0.30761,0.5933 -0.30761,1.3257 0,1.1572 0.68115,1.8823 0.68115,0.7251 1.75049,0.7251 z" />
        </g>
        <g
           id="text3592"
           style="font-style:normal;font-variant:normal;font-weight:normal;font-stretch:normal;font-size:15px;line-height:125%;font-family:Montserrat;-inkscape-font-specification:Montserrat;text-align:center;letter-spacing:0px;word-spacing:0px;text-anchor:middle;display:inline;fill:#00a7d0;fill-opacity:1;stroke:none;stroke-width:1px;stroke-linecap:butt;stroke-linejoin:miter;stroke-opacity:1">
          <path
             id="path4814"
             style=""
             d="m 162.65942,1691.6422 q 1.06202,0 1.89698,0.3369 0.84228,0.3369 1.39892,0.9668 l -0.94482,1.1133 q -0.87158,-0.9009 -2.21924,-0.9009 -1.06201,0 -1.75049,0.7105 -0.68115,0.7031 -0.68115,1.8384 0,1.1279 0.6665,1.8383 0.66651,0.7105 1.70655,0.7105 1.53076,0 2.35107,-0.9595 l 0.95947,0.9595 q -0.54199,0.7178 -1.40625,1.1059 -0.85693,0.3809 -1.97754,0.3809 -1.17187,0 -2.0874,-0.5054 -0.91553,-0.5127 -1.42822,-1.4282 -0.50537,-0.9155 -0.50537,-2.102 0,-1.2012 0.50537,-2.1167 0.51269,-0.9229 1.42822,-1.4356 0.91553,-0.5127 2.0874,-0.5127 z" />
          <path
             id="path4816"
             style=""
             d="m 170.95044,1691.6422 q 1.21582,0 2.16064,0.5127 0.94483,0.5127 1.46485,1.4282 0.52734,0.9082 0.52734,2.1094 0,1.1865 -0.52734,2.1094 -0.52002,0.9228 -1.46485,1.4355 -0.94482,0.5054 -2.16064,0.5054 -1.23047,0 -2.17529,-0.5054 -0.94483,-0.5127 -1.47217,-1.4355 -0.52002,-0.9229 -0.52002,-2.1094 0,-1.2012 0.52002,-2.1094 0.52734,-0.9155 1.47217,-1.4282 0.94482,-0.5127 2.17529,-0.5127 z m 0,1.4868 q -1.07666,0 -1.76514,0.7251 -0.68115,0.7178 -0.68115,1.8531 0,1.1572 0.68115,1.8823 0.68848,0.7178 1.76514,0.7178 1.07666,0 1.75049,-0.7178 0.68115,-0.7251 0.68115,-1.8823 0,-1.1426 -0.68848,-1.8604 -0.68115,-0.7178 -1.74316,-0.7178 z" />
          <path
             id="path4818"
             style=""
             d="m 181.57056,1691.6422 q 1.3916,0 2.18261,0.8203 0.79102,0.8203 0.79102,2.2559 l 0,4.9658 -1.72852,0 0,-4.4824 q 0,-0.9009 -0.51269,-1.4209 -0.50537,-0.52 -1.40625,-0.52 -0.95947,0.015 -1.56738,0.6152 -0.60791,0.6006 -0.69581,1.5601 l 0,4.248 -1.72851,0 0,-7.9834 1.72851,0 0,1.5308 q 0.81299,-1.5894 2.93702,-1.5894 z" />
          <path
             id="path4820"
             style=""
             d="m 192.83521,1690.4557 q -0.43213,0 -0.71778,-0.2857 -0.28564,-0.2929 -0.28564,-0.747 0,-0.4615 0.28564,-0.7544 0.28565,-0.293 0.71778,-0.293 0.43212,0 0.71777,0.293 0.28564,0.2929 0.28564,0.7544 0,0.4468 -0.28564,0.7397 -0.27832,0.293 -0.71777,0.293 z m -5.66895,0.769 q 0,-0.9008 0.38818,-1.5234 0.39551,-0.6226 1.02539,-0.9229 0.62989,-0.3003 1.33301,-0.3003 0.85694,0 1.48682,0.3589 l -0.0659,1.5015 q -0.76172,-0.3442 -1.37695,-0.3442 -0.49805,0 -0.79102,0.2563 -0.28564,0.2564 -0.28564,0.8057 l 0,0.9302 2.08008,0 0,1.2963 -2.08008,0 0,6.4014 -1.71387,0 0,-6.4014 -1.04736,0 0,-1.2963 1.04736,0 0,-0.7618 z m 6.52588,0.4761 0,7.9834 -1.70654,0 0,-7.9834 1.70654,0 z" />
          <path
             id="path4822"
             style=""
             d="m 203.44067,1698.9078 q 0,1.1426 -0.51269,1.9776 -0.50537,0.8423 -1.44287,1.2964 -0.9375,0.4541 -2.18262,0.4541 -1.77246,0 -3.31787,-1.0474 l 0.73975,-1.2451 q 0.58593,0.4321 1.18652,0.6518 0.60791,0.2198 1.31836,0.2198 1.14258,0 1.82373,-0.6153 0.68115,-0.6152 0.68115,-1.6479 l 0,-1.0108 q -0.40283,0.6592 -1.07666,1.0108 -0.6665,0.3442 -1.56738,0.3442 -1.06201,0 -1.88233,-0.4834 -0.81298,-0.4907 -1.26709,-1.3623 -0.44677,-0.8716 -0.44677,-2.0141 0,-1.128 0.44677,-1.9849 0.45411,-0.8643 1.26709,-1.333 0.82032,-0.4761 1.88233,-0.4761 0.88623,0 1.56006,0.3589 0.67382,0.3516 1.08398,0.9961 l 0,-1.2964 1.70654,0 0,7.207 z m -4.00634,-0.9668 q 1.01074,0 1.65527,-0.6884 0.64453,-0.6885 0.64453,-1.7652 0,-1.0766 -0.63721,-1.7578 -0.6372,-0.6885 -1.66259,-0.6885 -1.01807,0 -1.6626,0.6812 -0.64453,0.6811 -0.65918,1.7651 0.0146,1.0767 0.65185,1.7652 0.63721,0.6884 1.66993,0.6884 z" />
          <path
             id="path4824"
             style=""
             d="m 213.09399,1699.6842 -1.72119,0 0,-1.5601 q -0.77636,1.5894 -2.84912,1.6187 -1.3623,0 -2.14599,-0.8203 -0.7837,-0.8277 -0.7837,-2.2559 l 0,-4.9658 1.72852,0 0,4.4898 q 0,0.9008 0.49072,1.4209 0.49805,0.5126 1.36963,0.5126 1.00342,-0.015 1.59668,-0.7104 0.59326,-0.7031 0.59326,-1.7798 l 0,-3.9331 1.72119,0 0,7.9834 z" />
          <path
             id="path4826"
             style=""
             d="m 217.36401,1693.2975 q 0.40284,-0.813 1.10596,-1.2305 0.70313,-0.4248 1.64795,-0.4248 l 0,1.6553 q -1.18652,-0.059 -1.91895,0.5566 -0.73242,0.6079 -0.83496,1.6626 l 0,4.1675 -1.72851,0 0,-7.9834 1.72851,0 0,1.5967 z" />
          <path
             id="path4828"
             style=""
             d="m 226.01392,1698.7101 q -0.85694,1.0473 -2.63672,1.0473 -0.84229,0 -1.47949,-0.3222 -0.63721,-0.3223 -0.98145,-0.8789 -0.34424,-0.564 -0.34424,-1.2744 0,-1.0987 0.79102,-1.7359 0.79834,-0.6445 2.22656,-0.6592 l 2.40967,0 0,-0.2417 q 0,-0.7617 -0.49073,-1.1792 -0.48339,-0.4248 -1.41357,-0.4248 -1.15723,0 -2.35107,0.8057 l -0.71045,-1.2012 q 0.91552,-0.542 1.64062,-0.769 0.73242,-0.2344 1.79444,-0.2344 1.53076,0 2.37304,0.7471 0.84229,0.7397 0.85694,2.0581 l 0.0146,5.2368 -1.69921,0 0,-0.9741 z m -2.27784,-0.315 q 0.91553,0 1.55274,-0.4248 0.63721,-0.4321 0.71045,-1.0913 l 0,-0.7324 -2.16065,0 q -0.85693,0 -1.25244,0.249 -0.39551,0.2417 -0.39551,0.813 0,0.542 0.41016,0.8643 0.41748,0.3222 1.13525,0.3222 z" />
          <path
             id="path4830"
             style=""
             d="m 234.53931,1699.1715 q -0.9961,0.5859 -1.97022,0.5859 -0.97412,0 -1.604,-0.5859 -0.62988,-0.5859 -0.62988,-1.7358 l 0,-4.1382 -1.12793,0 0,-1.2964 1.12793,0 0,-2.1899 1.71386,0 0,2.1899 2.35108,0 0,1.2964 -2.35108,0 0,3.8232 q 0,0.6006 0.20508,0.8423 0.2124,0.2344 0.64453,0.2344 0.4834,0 1.20117,-0.3443 l 0.43946,1.3184 z" />
          <path
             id="path4832"
             style=""
             d="m 236.11401,1699.6842 0,-7.9834 1.71387,0 0,7.9834 -1.71387,0 z m 0.84961,-11.3086 q 0.43946,0 0.7251,0.293 0.28565,0.2929 0.28565,0.7544 0,0.4468 -0.28565,0.7397 -0.28564,0.293 -0.7251,0.293 -0.43213,0 -0.71777,-0.2857 -0.28564,-0.2929 -0.28564,-0.747 0,-0.4615 0.28564,-0.7544 0.28564,-0.293 0.71777,-0.293 z" />
          <path
             id="path4834"
             style=""
             d="m 243.78247,1691.6422 q 1.21582,0 2.16065,0.5127 0.94482,0.5127 1.46484,1.4282 0.52734,0.9082 0.52734,2.1094 0,1.1865 -0.52734,2.1094 -0.52002,0.9228 -1.46484,1.4355 -0.94483,0.5054 -2.16065,0.5054 -1.23047,0 -2.17529,-0.5054 -0.94483,-0.5127 -1.47217,-1.4355 -0.52002,-0.9229 -0.52002,-2.1094 0,-1.2012 0.52002,-2.1094 0.52734,-0.9155 1.47217,-1.4282 0.94482,-0.5127 2.17529,-0.5127 z m 0,1.4868 q -1.07666,0 -1.76514,0.7251 -0.68115,0.7178 -0.68115,1.8531 0,1.1572 0.68115,1.8823 0.68848,0.7178 1.76514,0.7178 1.07666,0 1.75049,-0.7178 0.68115,-0.7251 0.68115,-1.8823 0,-1.1426 -0.68848,-1.8604 -0.68115,-0.7178 -1.74316,-0.7178 z" />
          <path
             id="path4836"
             style=""
             d="m 254.40259,1691.6422 q 1.3916,0 2.18262,0.8203 0.79101,0.8203 0.79101,2.2559 l 0,4.9658 -1.72851,0 0,-4.4824 q 0,-0.9009 -0.5127,-1.4209 -0.50537,-0.52 -1.40625,-0.52 -0.95947,0.015 -1.56738,0.6152 -0.60791,0.6006 -0.6958,1.5601 l 0,4.248 -1.72852,0 0,-7.9834 1.72852,0 0,1.5308 q 0.81298,-1.5894 2.93701,-1.5894 z" />
          <path
             id="path4838"
             style=""
             d="m 200.67212,1709.2057 q -0.43213,0 -0.71777,-0.2857 -0.28565,-0.2929 -0.28565,-0.747 0,-0.4615 0.28565,-0.7544 0.28564,-0.293 0.71777,-0.293 0.43213,0 0.71777,0.293 0.28565,0.2929 0.28565,0.7544 0,0.4468 -0.28565,0.7397 -0.27832,0.293 -0.71777,0.293 z m -5.66895,0.769 q 0,-0.9008 0.38819,-1.5234 0.39551,-0.6226 1.02539,-0.9229 0.62988,-0.3003 1.33301,-0.3003 0.85693,0 1.48681,0.3589 l -0.0659,1.5015 q -0.76171,-0.3442 -1.37695,-0.3442 -0.49805,0 -0.79101,0.2563 -0.28565,0.2564 -0.28565,0.8057 l 0,0.9302 2.08008,0 0,1.2963 -2.08008,0 0,6.4014 -1.71387,0 0,-6.4014 -1.04736,0 0,-1.2963 1.04736,0 0,-0.7618 z m 6.52588,0.4761 0,7.9834 -1.70654,0 0,-7.9834 1.70654,0 z" />
          <path
             id="path4840"
             style=""
             d="m 204.15112,1718.4342 0,-11.1328 1.72852,0 0,11.1328 -1.72852,0 z" />
          <path
             id="path4842"
             style=""
             d="m 211.79028,1710.3922 q 1.88965,0 2.82715,1.0693 0.9375,1.0621 0.9375,2.9957 0,0.1977 -0.0293,0.6445 l -6.03515,0 q 0.2124,0.9302 0.87158,1.4648 0.65918,0.5347 1.604,0.5347 0.64454,0 1.23047,-0.2417 0.58594,-0.2417 1.01807,-0.6885 l 0.91553,0.9741 q -0.60059,0.6446 -1.44287,0.9961 -0.83497,0.3516 -1.85303,0.3516 -1.21582,0 -2.13867,-0.5054 -0.92285,-0.5127 -1.43555,-1.4282 -0.50537,-0.9155 -0.50537,-2.102 0,-1.1866 0.50537,-2.1021 0.5127,-0.9228 1.43555,-1.4429 0.92285,-0.52 2.09472,-0.52 z m 2.23389,3.4497 q -0.0439,-0.9595 -0.64453,-1.5088 -0.60059,-0.5566 -1.57471,-0.5566 -0.94482,0 -1.56738,0.5566 -0.62256,0.5493 -0.77637,1.5088 l 4.56299,0 z" />
          <path
             id="path4844"
             style=""
             d="m 219.70776,1710.3776 q 0.76172,0 1.50147,0.2197 0.74707,0.2197 1.28906,0.5933 l -0.62988,1.2744 q -0.52735,-0.3296 -1.1499,-0.5127 -0.62256,-0.1905 -1.14991,-0.1905 -0.54199,0 -0.85693,0.1978 -0.30762,0.1904 -0.30762,0.5933 0,0.4028 0.36621,0.6152 0.36621,0.2124 1.22315,0.4834 0.81299,0.2417 1.34033,0.4834 0.53467,0.2344 0.91553,0.7178 0.38086,0.476 0.38086,1.2597 0,1.1719 -0.87891,1.7798 -0.87891,0.6006 -2.18262,0.6006 -0.90088,0 -1.76513,-0.293 -0.85694,-0.2929 -1.44287,-0.813 l 0.61523,-1.2304 q 0.5127,0.4467 1.25244,0.7177 0.73975,0.271 1.4209,0.271 0.58594,0 0.94482,-0.205 0.35889,-0.2124 0.35889,-0.6519 0,-0.3296 -0.21973,-0.542 -0.21972,-0.2197 -0.53466,-0.3442 -0.31495,-0.1319 -0.91553,-0.315 -0.79834,-0.2417 -1.29639,-0.4687 -0.49804,-0.2344 -0.86426,-0.6885 -0.35888,-0.4614 -0.35888,-1.2231 0,-1.1426 0.84228,-1.7359 0.84229,-0.5932 2.10205,-0.5932 z" />
        </g>
        <g
           id="text3596"
           style="font-style:normal;font-variant:normal;font-weight:normal;font-stretch:normal;font-size:7.5px;line-height:125%;font-family:Montserrat;-inkscape-font-specification:Montserrat;text-align:center;letter-spacing:0px;word-spacing:0px;text-anchor:middle;display:inline;fill:#00a7d0;fill-opacity:1;stroke:none;stroke-width:1px;stroke-linecap:butt;stroke-linejoin:miter;stroke-opacity:1">
          <path
             id="path4773"
             style=""
             d="m 31.864258,1760.1305 q 0.201416,-0.4065 0.552978,-0.6152 0.351563,-0.2124 0.823975,-0.2124 l 0,0.8276 q -0.593262,-0.029 -0.959473,0.2783 -0.366211,0.304 -0.41748,0.8313 l 0,2.0838 -0.864258,0 0,-3.9917 0.864258,0 0,0.7983 z" />
          <path
             id="path4775"
             style=""
             d="m 35.603271,1759.3029 q 0.944825,0 1.413575,0.5346 0.46875,0.531 0.46875,1.4978 0,0.099 -0.01465,0.3223 l -3.017578,0 q 0.106201,0.4651 0.435791,0.7324 0.32959,0.2673 0.802002,0.2673 0.322266,0 0.615234,-0.1208 0.292969,-0.1209 0.509034,-0.3442 l 0.457763,0.487 q -0.300293,0.3223 -0.721435,0.4981 -0.417481,0.1757 -0.926514,0.1757 -0.60791,0 -1.069336,-0.2526 -0.461426,-0.2564 -0.717773,-0.7141 -0.252686,-0.4578 -0.252686,-1.0511 0,-0.5932 0.252686,-1.051 0.256347,-0.4614 0.717773,-0.7214 0.461426,-0.26 1.047363,-0.26 z m 1.116944,1.7248 q -0.02197,-0.4797 -0.322266,-0.7544 -0.300293,-0.2783 -0.787353,-0.2783 -0.472412,0 -0.783692,0.2783 -0.311279,0.2747 -0.388183,0.7544 l 2.281494,0 z" />
          <path
             id="path4777"
             style=""
             d="m 42.169434,1764.7777 -0.860596,0 0,-2.135 q -0.216065,0.3516 -0.574951,0.5347 -0.355225,0.1831 -0.827637,0.1831 -0.571289,0 -1.003418,-0.2564 -0.428467,-0.26 -0.670166,-0.7251 -0.238037,-0.4651 -0.238037,-1.0656 0,-0.5933 0.238037,-1.0511 0.241699,-0.4577 0.670166,-0.7104 0.432129,-0.2564 0.98877,-0.2564 0.479736,0 0.83496,0.1905 0.355225,0.1867 0.582276,0.5383 l 0,-0.6921 0.860596,0 0,5.4455 z m -2.083741,-2.135 q 0.541993,0 0.882569,-0.3625 0.340576,-0.3663 0.340576,-0.9375 0,-0.5787 -0.340576,-0.9449 -0.340576,-0.3662 -0.882569,-0.3662 -0.53833,0 -0.882568,0.3699 -0.340576,0.3662 -0.3479,0.9412 0.0073,0.5712 0.3479,0.9375 0.344238,0.3625 0.882568,0.3625 z" />
          <path
             id="path4779"
             style=""
             d="m 47.102295,1763.3239 -0.860596,0 0,-0.7801 q -0.388183,0.7947 -1.42456,0.8093 -0.681153,0 -1.072998,-0.4101 -0.391846,-0.4138 -0.391846,-1.1279 l 0,-2.4829 0.864258,0 0,2.2448 q 0,0.4505 0.245361,0.7105 0.249023,0.2563 0.684815,0.2563 0.501708,-0.01 0.798339,-0.3552 0.296631,-0.3516 0.296631,-0.8899 l 0,-1.9665 0.860596,0 0,3.9917 z" />
          <path
             id="path4781"
             style=""
             d="m 48.373047,1763.3239 0,-3.9917 0.856933,0 0,3.9917 -0.856933,0 z m 0.424805,-5.6543 q 0.219726,0 0.362548,0.1464 0.142823,0.1465 0.142823,0.3772 0,0.2234 -0.142823,0.3699 -0.142822,0.1465 -0.362548,0.1465 -0.216065,0 -0.358887,-0.1428 -0.142822,-0.1465 -0.142822,-0.3736 0,-0.2307 0.142822,-0.3772 0.142822,-0.1464 0.358887,-0.1464 z" />
          <path
             id="path4783"
             style=""
             d="m 51.361328,1760.1305 q 0.201416,-0.4065 0.552979,-0.6152 0.351562,-0.2124 0.823974,-0.2124 l 0,0.8276 q -0.593261,-0.029 -0.959472,0.2783 -0.366211,0.304 -0.417481,0.8313 l 0,2.0838 -0.864258,0 0,-3.9917 0.864258,0 0,0.7983 z" />
          <path
             id="path4785"
             style=""
             d="m 55.100342,1759.3029 q 0.944824,0 1.413574,0.5346 0.46875,0.531 0.46875,1.4978 0,0.099 -0.01465,0.3223 l -3.017579,0 q 0.106202,0.4651 0.435791,0.7324 0.32959,0.2673 0.802002,0.2673 0.322266,0 0.615235,-0.1208 0.292969,-0.1209 0.509033,-0.3442 l 0.457764,0.487 q -0.300293,0.3223 -0.721436,0.4981 -0.41748,0.1757 -0.926514,0.1757 -0.60791,0 -1.069335,-0.2526 -0.461426,-0.2564 -0.717774,-0.7141 -0.252685,-0.4578 -0.252685,-1.0511 0,-0.5932 0.252685,-1.051 0.256348,-0.4614 0.717774,-0.7214 0.461425,-0.26 1.047363,-0.26 z m 1.116943,1.7248 q -0.02197,-0.4797 -0.322265,-0.7544 -0.300293,-0.2783 -0.787354,-0.2783 -0.472412,0 -0.783691,0.2783 -0.31128,0.2747 -0.388184,0.7544 l 2.281494,0 z" />
          <path
             id="path4787"
             style=""
             d="m 59.059082,1759.2955 q 0.380859,0 0.750732,0.1099 0.373536,0.1099 0.644532,0.2966 l -0.314942,0.6372 q -0.263672,-0.1648 -0.574951,-0.2563 -0.311279,-0.095 -0.574951,-0.095 -0.270996,0 -0.428467,0.099 -0.153808,0.095 -0.153808,0.2967 0,0.2014 0.183105,0.3076 0.183105,0.1062 0.611572,0.2417 0.406494,0.1208 0.670166,0.2417 0.267334,0.1172 0.457764,0.3589 0.19043,0.238 0.19043,0.6299 0,0.5859 -0.439453,0.8899 -0.439454,0.3002 -1.091309,0.3002 -0.45044,0 -0.882568,-0.1464 -0.428467,-0.1465 -0.721436,-0.4065 l 0.307617,-0.6153 q 0.256348,0.2234 0.626221,0.3589 0.369873,0.1355 0.710449,0.1355 0.292969,0 0.472412,-0.1025 0.179444,-0.1062 0.179444,-0.3259 0,-0.1648 -0.109864,-0.271 -0.109863,-0.1099 -0.267334,-0.1722 -0.15747,-0.066 -0.457763,-0.1574 -0.39917,-0.1209 -0.648194,-0.2344 -0.249023,-0.1172 -0.432129,-0.3442 -0.179443,-0.2308 -0.179443,-0.6116 0,-0.5713 0.421143,-0.8679 0.421142,-0.2967 1.051025,-0.2967 z" />
        </g>
        <g
           id="text3604"
           style="font-style:normal;font-variant:normal;font-weight:normal;font-stretch:normal;font-size:7.5px;line-height:125%;font-family:Montserrat;-inkscape-font-specification:Montserrat;text-align:center;letter-spacing:0px;word-spacing:0px;text-anchor:middle;display:inline;fill:#00a7d0;fill-opacity:1;stroke:none;stroke-width:1px;stroke-linecap:butt;stroke-linejoin:miter;stroke-opacity:1">
          <path
             id="path4797"
             style=""
             d="m 146.93103,1663.3029 q 0.53101,0 0.94849,0.1684 0.42114,0.1685 0.69946,0.4834 l -0.47241,0.5567 q -0.43579,-0.4505 -1.10962,-0.4505 -0.53101,0 -0.87525,0.3552 -0.34057,0.3516 -0.34057,0.9192 0,0.564 0.33325,0.9192 0.33325,0.3552 0.85327,0.3552 0.76538,0 1.17554,-0.4797 l 0.47973,0.4797 q -0.27099,0.3589 -0.70312,0.553 -0.42847,0.1904 -0.98877,0.1904 -0.58594,0 -1.0437,-0.2526 -0.45776,-0.2564 -0.71411,-0.7141 -0.25269,-0.4578 -0.25269,-1.0511 0,-0.6006 0.25269,-1.0583 0.25635,-0.4614 0.71411,-0.7178 0.45776,-0.2563 1.0437,-0.2563 z" />
          <path
             id="path4799"
             style=""
             d="m 151.07654,1663.3029 q 0.60791,0 1.08032,0.2563 0.47241,0.2564 0.73242,0.7141 0.26367,0.4541 0.26367,1.0547 0,0.5933 -0.26367,1.0547 -0.26001,0.4614 -0.73242,0.7178 -0.47241,0.2526 -1.08032,0.2526 -0.61524,0 -1.08765,-0.2526 -0.47241,-0.2564 -0.73608,-0.7178 -0.26001,-0.4614 -0.26001,-1.0547 0,-0.6006 0.26001,-1.0547 0.26367,-0.4577 0.73608,-0.7141 0.47241,-0.2563 1.08765,-0.2563 z m 0,0.7434 q -0.53833,0 -0.88257,0.3625 -0.34058,0.3589 -0.34058,0.9265 0,0.5786 0.34058,0.9412 0.34424,0.3589 0.88257,0.3589 0.53833,0 0.87524,-0.3589 0.34058,-0.3626 0.34058,-0.9412 0,-0.5713 -0.34424,-0.9301 -0.34058,-0.3589 -0.87158,-0.3589 z" />
          <path
             id="path4801"
             style=""
             d="m 156.3866,1663.3029 q 0.6958,0 1.09131,0.4101 0.3955,0.4102 0.3955,1.1279 l 0,2.483 -0.86425,0 0,-2.2413 q 0,-0.4504 -0.25635,-0.7104 -0.25269,-0.26 -0.70313,-0.26 -0.47973,0.01 -0.78369,0.3076 -0.30395,0.3003 -0.3479,0.78 l 0,2.1241 -0.86426,0 0,-3.9917 0.86426,0 0,0.7653 q 0.40649,-0.7946 1.46851,-0.7946 z" />
          <path
             id="path4803"
             style=""
             d="m 161.27917,1667.0675 q -0.49804,0.293 -0.9851,0.293 -0.48706,0 -0.802,-0.293 -0.31495,-0.293 -0.31495,-0.8679 l 0,-2.0691 -0.56396,0 0,-0.6482 0.56396,0 0,-1.095 0.85694,0 0,1.095 1.17553,0 0,0.6482 -1.17553,0 0,1.9116 q 0,0.3003 0.10254,0.4212 0.1062,0.1171 0.32226,0.1171 0.2417,0 0.60059,-0.1721 l 0.21972,0.6592 z" />
          <path
             id="path4805"
             style=""
             d="m 164.45789,1666.8368 q -0.42847,0.5237 -1.31836,0.5237 -0.42115,0 -0.73975,-0.1612 -0.3186,-0.1611 -0.49072,-0.4394 -0.17212,-0.282 -0.17212,-0.6372 0,-0.5493 0.39551,-0.8679 0.39917,-0.3223 1.11328,-0.3296 l 1.20483,0 0,-0.1209 q 0,-0.3808 -0.24536,-0.5896 -0.2417,-0.2124 -0.70679,-0.2124 -0.57861,0 -1.17553,0.4029 l -0.35523,-0.6006 q 0.45777,-0.271 0.82031,-0.3846 0.36621,-0.1171 0.89722,-0.1171 0.76538,0 1.18652,0.3735 0.42115,0.3699 0.42847,1.029 l 0.007,2.6185 -0.84961,0 0,-0.4871 z m -1.13892,-0.1575 q 0.45776,0 0.77637,-0.2124 0.3186,-0.216 0.35522,-0.5456 l 0,-0.3662 -1.08032,0 q -0.42847,0 -0.62622,0.1245 -0.19776,0.1208 -0.19776,0.4065 0,0.271 0.20508,0.4321 0.20874,0.1611 0.56763,0.1611 z" />
          <path
             id="path4807"
             style=""
             d="m 166.46106,1667.3239 0,-3.9917 0.85693,0 0,3.9917 -0.85693,0 z m 0.4248,-5.6543 q 0.21973,0 0.36255,0.1464 0.14283,0.1465 0.14283,0.3772 0,0.2234 -0.14283,0.3699 -0.14282,0.1465 -0.36255,0.1465 -0.21606,0 -0.35888,-0.1428 -0.14282,-0.1465 -0.14282,-0.3736 0,-0.2307 0.14282,-0.3772 0.14282,-0.1464 0.35888,-0.1464 z" />
          <path
             id="path4809"
             style=""
             d="m 170.91785,1663.3029 q 0.6958,0 1.09131,0.4101 0.3955,0.4102 0.3955,1.1279 l 0,2.483 -0.86425,0 0,-2.2413 q 0,-0.4504 -0.25635,-0.7104 -0.25269,-0.26 -0.70313,-0.26 -0.47973,0.01 -0.78369,0.3076 -0.30395,0.3003 -0.3479,0.78 l 0,2.1241 -0.86426,0 0,-3.9917 0.86426,0 0,0.7653 q 0.40649,-0.7946 1.46851,-0.7946 z" />
          <path
             id="path4811"
             style=""
             d="m 174.74475,1663.2955 q 0.38086,0 0.75073,0.1099 0.37354,0.1099 0.64453,0.2966 l -0.31494,0.6372 q -0.26367,-0.1648 -0.57495,-0.2563 -0.31128,-0.095 -0.57495,-0.095 -0.271,0 -0.42847,0.099 -0.1538,0.095 -0.1538,0.2967 0,0.2014 0.1831,0.3076 0.18311,0.1062 0.61157,0.2417 0.4065,0.1208 0.67017,0.2417 0.26733,0.1172 0.45776,0.3589 0.19043,0.238 0.19043,0.6299 0,0.5859 -0.43945,0.8899 -0.43945,0.3002 -1.09131,0.3002 -0.45044,0 -0.88257,-0.1464 -0.42846,-0.1465 -0.72143,-0.4065 l 0.30761,-0.6153 q 0.25635,0.2234 0.62622,0.3589 0.36988,0.1355 0.71045,0.1355 0.29297,0 0.47242,-0.1025 0.17944,-0.1062 0.17944,-0.3259 0,-0.1648 -0.10986,-0.271 -0.10987,-0.1099 -0.26734,-0.1722 -0.15747,-0.066 -0.45776,-0.1574 -0.39917,-0.1209 -0.64819,-0.2344 -0.24903,-0.1172 -0.43213,-0.3442 -0.17945,-0.2308 -0.17945,-0.6116 0,-0.5713 0.42115,-0.8679 0.42114,-0.2967 1.05102,-0.2967 z" />
        </g>
        <rect
           y="1626.3622"
           x="1.6113282e-07"
           height="176"
           width="400"
           id="rect3618"
           style="fill:none;fill-opacity:1;stroke:none;stroke-width:3;stroke-linecap:round;stroke-linejoin:round;stroke-miterlimit:4;stroke-dasharray:none;stroke-dashoffset:0;stroke-opacity:1" />
      </g>
    </g>
  </g>
</svg>
