<?xml version="1.0" encoding="UTF-8" standalone="no"?>
<svg
   xmlns:dc="http://purl.org/dc/elements/1.1/"
   xmlns:cc="http://creativecommons.org/ns#"
   xmlns:rdf="http://www.w3.org/1999/02/22-rdf-syntax-ns#"
   xmlns:svg="http://www.w3.org/2000/svg"
   xmlns="http://www.w3.org/2000/svg"
   version="1.1"
   id="svg2"
   viewBox="0 0 400 176"
   height="176"
   width="400">
  <defs
     id="defs4">
    <marker
       orient="auto"
       refY="0"
       refX="0"
       id="marker4659"
       style="overflow:visible">
      <path
         id="path4661"
         style="fill:#00a7d0;fill-opacity:1;fill-rule:evenodd;stroke:#00a7d0;stroke-width:0.625;stroke-linejoin:round;stroke-opacity:1"
         d="M 8.7185878,4.0337352 -2.2072895,0.01601326 8.7185884,-4.0017078 c -1.7454984,2.3720609 -1.7354408,5.6174519 -6e-7,8.035443 z"
         transform="matrix(-0.3,0,0,-0.3,0.69,0)" />
    </marker>
    <marker
       style="overflow:visible"
       id="marker6290"
       refX="0"
       refY="0"
       orient="auto">
      <path
         transform="matrix(-0.3,0,0,-0.3,0.69,0)"
         d="M 8.7185878,4.0337352 -2.2072895,0.01601326 8.7185884,-4.0017078 c -1.7454984,2.3720609 -1.7354408,5.6174519 -6e-7,8.035443 z"
         style="fill:#00a7d0;fill-opacity:1;fill-rule:evenodd;stroke:#00a7d0;stroke-width:0.625;stroke-linejoin:round;stroke-opacity:1"
         id="path6292" />
    </marker>
    <marker
       style="overflow:visible"
       id="marker6022"
       refX="0"
       refY="0"
       orient="auto">
      <path
         transform="matrix(-0.3,0,0,-0.3,0.69,0)"
         d="M 8.7185878,4.0337352 -2.2072895,0.01601326 8.7185884,-4.0017078 c -1.7454984,2.3720609 -1.7354408,5.6174519 -6e-7,8.035443 z"
         style="fill:#00a7d0;fill-opacity:1;fill-rule:evenodd;stroke:#00a7d0;stroke-width:0.625;stroke-linejoin:round;stroke-opacity:1"
         id="path6024" />
    </marker>
    <marker
       orient="auto"
       refY="0"
       refX="0"
       id="marker5128"
       style="overflow:visible">
      <path
         id="path5130"
         style="fill:#00a7d0;fill-opacity:1;fill-rule:evenodd;stroke:#00a7d0;stroke-width:0.625;stroke-linejoin:round;stroke-opacity:1"
         d="M 8.7185878,4.0337352 -2.2072895,0.01601326 8.7185884,-4.0017078 c -1.7454984,2.3720609 -1.7354408,5.6174519 -6e-7,8.035443 z"
         transform="matrix(-0.3,0,0,-0.3,0.69,0)" />
    </marker>
    <marker
       style="overflow:visible"
       id="marker4886"
       refX="0"
       refY="0"
       orient="auto">
      <path
         transform="matrix(-0.3,0,0,-0.3,0.69,0)"
         d="M 8.7185878,4.0337352 -2.2072895,0.01601326 8.7185884,-4.0017078 c -1.7454984,2.3720609 -1.7354408,5.6174519 -6e-7,8.035443 z"
         style="fill:#00a7d0;fill-opacity:1;fill-rule:evenodd;stroke:#00a7d0;stroke-width:0.625;stroke-linejoin:round;stroke-opacity:1"
         id="path4888" />
    </marker>
    <marker
       style="overflow:visible"
       id="marker4800"
       refX="0"
       refY="0"
       orient="auto">
      <path
         transform="matrix(-0.3,0,0,-0.3,0.69,0)"
         d="M 8.7185878,4.0337352 -2.2072895,0.01601326 8.7185884,-4.0017078 c -1.7454984,2.3720609 -1.7354408,5.6174519 -6e-7,8.035443 z"
         style="fill:#00a7d0;fill-opacity:1;fill-rule:evenodd;stroke:#00a7d0;stroke-width:0.625;stroke-linejoin:round;stroke-opacity:1"
         id="path4802" />
    </marker>
    <marker
       orient="auto"
       refY="0"
       refX="0"
       id="marker4664"
       style="overflow:visible">
      <path
         id="path4666"
         style="fill:#00a7d0;fill-opacity:1;fill-rule:evenodd;stroke:#00a7d0;stroke-width:0.625;stroke-linejoin:round;stroke-opacity:1"
         d="M 8.7185878,4.0337352 -2.2072895,0.01601326 8.7185884,-4.0017078 c -1.7454984,2.3720609 -1.7354408,5.6174519 -6e-7,8.035443 z"
         transform="matrix(-0.3,0,0,-0.3,0.69,0)" />
    </marker>
    <marker
       style="overflow:visible"
       id="marker4565"
       refX="0"
       refY="0"
       orient="auto">
      <path
         transform="matrix(-0.3,0,0,-0.3,0.69,0)"
         d="M 8.7185878,4.0337352 -2.2072895,0.01601326 8.7185884,-4.0017078 c -1.7454984,2.3720609 -1.7354408,5.6174519 -6e-7,8.035443 z"
         style="fill:#00a7d0;fill-opacity:1;fill-rule:evenodd;stroke:#00a7d0;stroke-width:0.625;stroke-linejoin:round;stroke-opacity:1"
         id="path4567" />
    </marker>
    <marker
       style="overflow:visible"
       id="Arrow2Send"
       refX="0"
       refY="0"
       orient="auto">
      <path
         transform="matrix(-0.3,0,0,-0.3,0.69,0)"
         d="M 8.7185878,4.0337352 -2.2072895,0.01601326 8.7185884,-4.0017078 c -1.7454984,2.3720609 -1.7354408,5.6174519 -6e-7,8.035443 z"
         style="fill:#00a7d0;fill-opacity:1;fill-rule:evenodd;stroke:#00a7d0;stroke-width:0.625;stroke-linejoin:round;stroke-opacity:1"
         id="path4320" />
    </marker>
    <marker
       style="overflow:visible"
       id="marker4980"
       refX="0"
       refY="0"
       orient="auto">
      <path
         transform="matrix(-0.2,0,0,-0.2,-1.2,0)"
         style="fill:#000000;fill-opacity:1;fill-rule:evenodd;stroke:#000000;stroke-width:1pt;stroke-opacity:1"
         d="M 0,0 5,-5 -12.5,0 5,5 0,0 Z"
         id="path4982" />
    </marker>
    <marker
       style="overflow:visible"
       id="Arrow2Send-6"
       refX="0"
       refY="0"
       orient="auto">
      <path
         transform="matrix(-0.3,0,0,-0.3,0.69,0)"
         d="M 8.7185878,4.0337352 -2.2072895,0.01601326 8.7185884,-4.0017078 c -1.7454984,2.3720609 -1.7354408,5.6174519 -6e-7,8.035443 z"
         style="fill:#00a7d0;fill-opacity:1;fill-rule:evenodd;stroke:#00a7d0;stroke-width:0.625;stroke-linejoin:round;stroke-opacity:1"
         id="path4320-4" />
    </marker>
    <marker
       style="overflow:visible"
       id="Arrow2Send-9"
       refX="0"
       refY="0"
       orient="auto">
      <path
         transform="matrix(-0.3,0,0,-0.3,0.69,0)"
         d="M 8.7185878,4.0337352 -2.2072895,0.01601326 8.7185884,-4.0017078 c -1.7454984,2.3720609 -1.7354408,5.6174519 -6e-7,8.035443 z"
         style="fill:#00a7d0;fill-opacity:1;fill-rule:evenodd;stroke:#00a7d0;stroke-width:0.625;stroke-linejoin:round;stroke-opacity:1"
         id="path4320-1" />
    </marker>
  </defs>
  <metadata
     id="metadata7">
    <rdf:RDF>
      <cc:Work
         rdf:about="">
        <dc:format>image/svg+xml</dc:format>
        <dc:type
           rdf:resource="http://purl.org/dc/dcmitype/StillImage" />
        <dc:title></dc:title>
      </cc:Work>
    </rdf:RDF>
  </metadata>
  <g
     style="display:inline"
     transform="translate(0,-876.36216)"
     id="layer1">
    <g
       id="g4741">
      <g
         id="g5875"
         transform="translate(-72.794357,74.40901)"
         style="display:inline">
        <path
           id="path5877"
           d="m 104.54072,859.38614 22.02499,-12.7165 0,-25.43302 -22.02499,-12.7165 -22.02626,12.7165 0,25.43302 z"
           style="fill:#ffffff;fill-opacity:1;fill-rule:evenodd;stroke:#00a7d0;stroke-width:2.99999976;stroke-linecap:butt;stroke-linejoin:miter;stroke-miterlimit:4;stroke-dasharray:none;stroke-opacity:1" />
        <path
           style="fill:none;fill-rule:evenodd;stroke:#00a7d0;stroke-width:2.99999976;stroke-linecap:butt;stroke-linejoin:miter;stroke-miterlimit:4;stroke-dasharray:none;stroke-opacity:1"
           d="m 104.54072,859.38614 -6.4e-4,-25.43301 22.02563,-12.71651 -22.02563,12.71651 -22.02562,-12.71651 22.02562,12.71651 z"
           id="path5879" />
        <rect
           y="801.95312"
           x="72.540085"
           height="64"
           width="64"
           id="rect5881"
           style="fill:none;fill-opacity:1;stroke:none;stroke-width:1.5;stroke-miterlimit:4;stroke-dasharray:none;stroke-dashoffset:0;stroke-opacity:1" />
      </g>
      <g
         id="g5883"
         transform="translate(-8.7943572,170.40902)"
         style="display:inline">
        <path
           id="path5885"
           d="m 104.54072,859.38614 22.02499,-12.7165 0,-25.43302 -22.02499,-12.7165 -22.02626,12.7165 0,25.43302 z"
           style="fill:#ffffff;fill-opacity:1;fill-rule:evenodd;stroke:#00a7d0;stroke-width:2.99999976;stroke-linecap:butt;stroke-linejoin:miter;stroke-miterlimit:4;stroke-dasharray:none;stroke-opacity:1" />
        <path
           style="fill:none;fill-rule:evenodd;stroke:#00a7d0;stroke-width:2.99999976;stroke-linecap:butt;stroke-linejoin:miter;stroke-miterlimit:4;stroke-dasharray:none;stroke-opacity:1"
           d="m 104.54072,859.38614 -6.4e-4,-25.43301 22.02563,-12.71651 -22.02563,12.71651 -22.02562,-12.71651 22.02562,12.71651 z"
           id="path5887" />
        <rect
           y="801.95312"
           x="72.540085"
           height="64"
           width="64"
           id="rect5889"
           style="fill:none;fill-opacity:1;stroke:none;stroke-width:1.5;stroke-miterlimit:4;stroke-dasharray:none;stroke-dashoffset:0;stroke-opacity:1" />
      </g>
      <g
         id="g5891"
         transform="translate(237.19424,-112.1104)"
         style="display:inline">
        <rect
           style="display:inline;fill:none;fill-opacity:1;stroke:none;stroke-width:1.5;stroke-miterlimit:4;stroke-dasharray:none;stroke-dashoffset:0;stroke-opacity:1"
           id="rect5893"
           width="64"
           height="64"
           x="-61.448505"
           y="1084.4725" />
        <path
           d="m -12.948507,1104.9726 -10,-10.0001 m -22.999997,43.0001 0,-43.0001 22.999997,0 10,10.0001 0,33 z"
           style="display:inline;fill:#ffffff;fill-opacity:1;fill-rule:evenodd;stroke:none;stroke-width:3;stroke-linecap:butt;stroke-linejoin:miter;stroke-miterlimit:4;stroke-dasharray:none;stroke-opacity:1"
           id="path5895" />
        <path
           id="path5897"
           style="display:inline;fill:none;fill-rule:evenodd;stroke:#00a7d0;stroke-width:3;stroke-linecap:butt;stroke-linejoin:miter;stroke-miterlimit:4;stroke-dasharray:none;stroke-opacity:1"
           d="m -12.948507,1104.9726 -10,0 0,-10.0001 m -22.999997,43.0001 0,-43.0001 22.999997,0 10,10.0001 0,33 z" />
      </g>
      <path
         id="path5899"
         d="m 31.745728,954.36214 0,49.99966 32,4e-4"
         style="fill:none;fill-rule:evenodd;stroke:#00a7d0;stroke-width:2;stroke-linecap:butt;stroke-linejoin:miter;stroke-miterlimit:4;stroke-dasharray:none;stroke-opacity:1;marker-end:url(#Arrow2Send)" />
      <path
         id="path5901"
         d="m 63.745728,908.36214 116.000002,0"
         style="fill:none;fill-rule:evenodd;stroke:#00a7d0;stroke-width:2;stroke-linecap:butt;stroke-linejoin:miter;stroke-miterlimit:4;stroke-dasharray:none;stroke-opacity:1;marker-end:url(#marker4565)" />
      <g
         style="font-style:normal;font-variant:normal;font-weight:normal;font-stretch:normal;font-size:15px;line-height:125%;font-family:Montserrat;-inkscape-font-specification:Montserrat;text-align:center;letter-spacing:0px;word-spacing:0px;text-anchor:middle;fill:#00a7d0;fill-opacity:1;stroke:none;stroke-width:1px;stroke-linecap:butt;stroke-linejoin:miter;stroke-opacity:1"
         id="text5903">
        <path
           d="m 13.365601,941.64227 q 1.062011,0 1.896972,0.33692 0.842285,0.33691 1.398926,0.96679 l -0.944824,1.11329 q -0.871582,-0.90088 -2.219238,-0.90088 -1.062012,0 -1.750489,0.71045 -0.681152,0.70312 -0.681152,1.83837 0,1.12793 0.666504,1.83838 0.666504,0.71045 1.706543,0.71045 1.530761,0 2.351074,-0.95947 l 0.959473,0.95947 q -0.541993,0.71778 -1.40625,1.10596 -0.856934,0.38086 -1.977539,0.38086 -1.171875,0 -2.087403,-0.50537 -0.915527,-0.5127 -1.4282224,-1.42822 -0.5053711,-0.91553 -0.5053711,-2.10206 0,-1.20117 0.5053711,-2.11669 0.5126954,-0.92286 1.4282224,-1.43555 0.915528,-0.5127 2.087403,-0.5127 z"
           style=""
           id="path4731" />
        <path
           d="m 21.656616,941.64227 q 1.215821,0 2.160645,0.5127 0.944824,0.51269 1.464843,1.42822 0.527344,0.9082 0.527344,2.10938 0,1.18652 -0.527344,2.10937 -0.520019,0.92285 -1.464843,1.43555 -0.944824,0.50537 -2.160645,0.50537 -1.230469,0 -2.175293,-0.50537 -0.944824,-0.5127 -1.472168,-1.43555 -0.520019,-0.92285 -0.520019,-2.10937 0,-1.20118 0.520019,-2.10938 0.527344,-0.91553 1.472168,-1.42822 0.944824,-0.5127 2.175293,-0.5127 z m 0,1.48682 q -1.07666,0 -1.765137,0.7251 -0.681152,0.71777 -0.681152,1.85302 0,1.15723 0.681152,1.88233 0.688477,0.71777 1.765137,0.71777 1.07666,0 1.750488,-0.71777 0.681153,-0.7251 0.681153,-1.88233 0,-1.14257 -0.688477,-1.86035 -0.681152,-0.71777 -1.743164,-0.71777 z"
           style=""
           id="path4733" />
        <path
           d="m 32.276733,941.64227 q 1.391602,0 2.182618,0.82032 0.791015,0.82031 0.791015,2.25585 l 0,4.96583 -1.728515,0 0,-4.48243 q 0,-0.90088 -0.512696,-1.4209 -0.505371,-0.52001 -1.40625,-0.52001 -0.959472,0.0146 -1.567383,0.61523 -0.60791,0.60059 -0.6958,1.56006 l 0,4.24805 -1.728516,0 0,-7.9834 1.728516,0 0,1.53076 q 0.812988,-1.58936 2.937011,-1.58936 z"
           style=""
           id="path4735" />
        <path
           d="m 43.541382,940.45575 q -0.432129,0 -0.717774,-0.28565 -0.285644,-0.29296 -0.285644,-0.74707 0,-0.46142 0.285644,-0.75439 0.285645,-0.29297 0.717774,-0.29297 0.432129,0 0.717773,0.29297 0.285645,0.29297 0.285645,0.75439 0,0.44678 -0.285645,0.73975 -0.27832,0.29297 -0.717773,0.29297 z m -5.668945,0.76904 q 0,-0.90088 0.388183,-1.52344 0.395508,-0.62255 1.025391,-0.92285 0.629883,-0.30029 1.333008,-0.30029 0.856933,0 1.486816,0.35889 l -0.06592,1.50146 q -0.761719,-0.34424 -1.376953,-0.34424 -0.498047,0 -0.791016,0.25635 -0.285644,0.25635 -0.285644,0.80567 l 0,0.93017 2.080078,0 0,1.29639 -2.080078,0 0,6.40137 -1.713867,0 0,-6.40137 -1.047364,0 0,-1.29639 1.047364,0 0,-0.76172 z m 6.525878,0.47608 0,7.9834 -1.706543,0 0,-7.9834 1.706543,0 z"
           style=""
           id="path4737" />
        <path
           d="m 54.146851,948.9079 q 0,1.14258 -0.512696,1.97754 -0.505371,0.84228 -1.442871,1.29638 -0.9375,0.45411 -2.182617,0.45411 -1.772461,0 -3.317871,-1.04737 l 0.739746,-1.24512 q 0.585937,0.43213 1.186523,0.65186 0.607911,0.21973 1.31836,0.21973 1.142578,0 1.82373,-0.61524 0.681153,-0.61523 0.681153,-1.64795 l 0,-1.01074 q -0.402832,0.65918 -1.076661,1.01074 -0.666503,0.34424 -1.567382,0.34424 -1.062012,0 -1.882325,-0.4834 -0.812988,-0.49072 -1.267089,-1.3623 -0.446778,-0.87158 -0.446778,-2.01416 0,-1.12793 0.446778,-1.98487 0.454101,-0.86425 1.267089,-1.333 0.820313,-0.47608 1.882325,-0.47608 0.88623,0 1.560058,0.35889 0.673828,0.35156 1.083985,0.99609 l 0,-1.29638 1.706543,0 0,7.20703 z m -4.006348,-0.9668 q 1.010742,0 1.655273,-0.68848 0.644532,-0.68847 0.644532,-1.76513 0,-1.07666 -0.637207,-1.75781 -0.637207,-0.68848 -1.662598,-0.68848 -1.018066,0 -1.662598,0.68115 -0.644531,0.68115 -0.659179,1.76514 0.01465,1.07666 0.651855,1.76513 0.637207,0.68848 1.669922,0.68848 z"
           style=""
           id="path4739" />
      </g>
      <g
         style="font-style:normal;font-variant:normal;font-weight:normal;font-stretch:normal;font-size:15px;line-height:125%;font-family:Montserrat;-inkscape-font-specification:Montserrat;text-align:center;letter-spacing:0px;word-spacing:0px;text-anchor:middle;display:inline;fill:#00a7d0;fill-opacity:1;stroke:none;stroke-width:1px;stroke-linecap:butt;stroke-linejoin:miter;stroke-opacity:1"
         id="text5907">
        <path
           d="m 87.165405,1045.0052 q -0.856933,1.0474 -2.636718,1.0474 -0.842286,0 -1.479493,-0.3223 -0.637207,-0.3222 -0.981445,-0.8789 -0.344238,-0.5639 -0.344238,-1.2744 0,-1.0986 0.791015,-1.7358 0.79834,-0.6445 2.226563,-0.6592 l 2.409668,0 0,-0.2417 q 0,-0.7617 -0.490723,-1.1792 -0.483398,-0.4248 -1.413574,-0.4248 -1.157227,0 -2.351074,0.8057 l -0.710449,-1.2012 q 0.915527,-0.542 1.640625,-0.769 0.732421,-0.2344 1.794433,-0.2344 1.530762,0 2.373047,0.747 0.842285,0.7398 0.856934,2.0582 l 0.01465,5.2368 -1.699219,0 0,-0.9742 z m -2.277832,-0.3149 q 0.915528,0 1.552735,-0.4248 0.637207,-0.4321 0.710449,-1.0913 l 0,-0.7324 -2.160645,0 q -0.856933,0 -1.252441,0.249 -0.395508,0.2417 -0.395508,0.813 0,0.542 0.410156,0.8642 0.417481,0.3223 1.135254,0.3223 z"
           style=""
           id="path4641" />
        <path
           d="m 95.764038,1037.9374 q 1.120606,0 1.984863,0.5127 0.864258,0.5127 1.340332,1.4428 0.483399,0.9229 0.483399,2.1241 0,1.1865 -0.476074,2.102 -0.46875,0.9155 -1.325684,1.4209 -0.856934,0.4981 -1.977539,0.4981 -0.944824,0 -1.669922,-0.3662 -0.717773,-0.3663 -1.149902,-1.0694 l 0,4.2847 -1.728516,0 0,-10.8911 1.728516,0 0,1.3842 q 0.432129,-0.7031 1.142578,-1.0693 0.717773,-0.3735 1.647949,-0.3735 z m -0.358887,6.6284 q 0.703125,0 1.252442,-0.3296 0.55664,-0.3296 0.864258,-0.9228 0.307617,-0.6006 0.307617,-1.355 0,-0.7324 -0.307617,-1.3184 -0.307618,-0.5859 -0.864258,-0.9228 -0.549317,-0.337 -1.252442,-0.337 -0.703125,0 -1.259765,0.3296 -0.556641,0.3296 -0.864258,0.9229 -0.307617,0.5933 -0.307617,1.3257 0,1.1572 0.681152,1.8823 0.681152,0.7251 1.750488,0.7251 z"
           style=""
           id="path4643" />
        <path
           d="m 105.95935,1037.9374 q 1.12061,0 1.98486,0.5127 0.86426,0.5127 1.34034,1.4428 0.48339,0.9229 0.48339,2.1241 0,1.1865 -0.47607,2.102 -0.46875,0.9155 -1.32568,1.4209 -0.85694,0.4981 -1.97754,0.4981 -0.94483,0 -1.66992,-0.3662 -0.71778,-0.3663 -1.14991,-1.0694 l 0,4.2847 -1.72851,0 0,-10.8911 1.72851,0 0,1.3842 q 0.43213,-0.7031 1.14258,-1.0693 0.71777,-0.3735 1.64795,-0.3735 z m -0.35889,6.6284 q 0.70313,0 1.25245,-0.3296 0.55664,-0.3296 0.86425,-0.9228 0.30762,-0.6006 0.30762,-1.355 0,-0.7324 -0.30762,-1.3184 -0.30761,-0.5859 -0.86425,-0.9228 -0.54932,-0.337 -1.25245,-0.337 -0.70312,0 -1.25976,0.3296 -0.55664,0.3296 -0.86426,0.9229 -0.30762,0.5933 -0.30762,1.3257 0,1.1572 0.68116,1.8823 0.68115,0.7251 1.75048,0.7251 z"
           style=""
           id="path4645" />
      </g>
      <g
         style="font-style:normal;font-variant:normal;font-weight:normal;font-stretch:normal;font-size:15px;line-height:125%;font-family:Montserrat;-inkscape-font-specification:Montserrat;text-align:center;letter-spacing:0px;word-spacing:0px;text-anchor:middle;display:inline;fill:#00a7d0;fill-opacity:1;stroke:none;stroke-width:1px;stroke-linecap:butt;stroke-linejoin:miter;stroke-opacity:1"
         id="text5911">
        <path
           d="m 190.12732,1045.9794 -1.72119,0 0,-1.3623 q -0.43213,0.7031 -1.1499,1.0693 -0.71045,0.3662 -1.65528,0.3662 -1.14258,0 -2.00683,-0.5127 -0.85694,-0.52 -1.34034,-1.4502 -0.47607,-0.9302 -0.47607,-2.1313 0,-1.1865 0.47607,-2.1021 0.4834,-0.9155 1.34034,-1.4209 0.86425,-0.5127 1.97754,-0.5127 0.95947,0 1.66992,0.3809 0.71045,0.3735 1.16455,1.0766 l 0,-4.5336 1.72119,0 0,11.1328 z m -4.16748,-1.3623 q 1.08398,0 1.76514,-0.7251 0.68115,-0.7325 0.68115,-1.875 0,-1.1573 -0.68115,-1.8897 -0.68116,-0.7324 -1.76514,-0.7324 -1.07666,0 -1.76514,0.7397 -0.68115,0.7325 -0.6958,1.8824 0.0147,1.1425 0.6958,1.875 0.68848,0.7251 1.76514,0.7251 z"
           style=""
           id="path4626" />
        <path
           d="m 196.03796,1037.9374 q 1.88965,0 2.82715,1.0693 0.9375,1.062 0.9375,2.9956 0,0.1978 -0.0293,0.6446 l -6.03516,0 q 0.2124,0.9301 0.87158,1.4648 0.65918,0.5347 1.60401,0.5347 0.64453,0 1.23046,-0.2417 0.58594,-0.2417 1.01807,-0.6885 l 0.91553,0.9741 q -0.60059,0.6445 -1.44287,0.9961 -0.83496,0.3516 -1.85303,0.3516 -1.21582,0 -2.13867,-0.5054 -0.92285,-0.5127 -1.43555,-1.4282 -0.50537,-0.9156 -0.50537,-2.1021 0,-1.1865 0.50537,-2.102 0.5127,-0.9229 1.43555,-1.4429 0.92285,-0.52 2.09472,-0.52 z m 2.23389,3.4497 q -0.0439,-0.9595 -0.64453,-1.5088 -0.60059,-0.5566 -1.57471,-0.5566 -0.94482,0 -1.56738,0.5566 -0.62256,0.5493 -0.77637,1.5088 l 4.56299,0 z"
           style=""
           id="path4628" />
        <path
           d="m 204.62927,1036.2748 q -0.46142,0 -0.76904,0.271 -0.30762,0.271 -0.30762,0.8056 l 0,0.9449 2.08008,0 0,1.2964 -2.08008,0 0,6.3867 -1.71386,0 0,-6.3867 -1.04737,0 0,-1.2964 1.04737,0 0,-0.7764 q 0,-0.8862 0.38085,-1.5088 0.38819,-0.6226 1.01807,-0.9302 0.62988,-0.3076 1.34766,-0.3076 1.04736,0 1.80175,0.5567 l -0.65917,1.3183 q -0.5127,-0.3735 -1.09864,-0.3735 z"
           style=""
           id="path4630" />
        <path
           d="m 210.97937,1045.0052 q -0.85693,1.0474 -2.63672,1.0474 -0.84228,0 -1.47949,-0.3223 -0.63721,-0.3222 -0.98145,-0.8789 -0.34423,-0.5639 -0.34423,-1.2744 0,-1.0986 0.79101,-1.7358 0.79834,-0.6445 2.22656,-0.6592 l 2.40967,0 0,-0.2417 q 0,-0.7617 -0.49072,-1.1792 -0.4834,-0.4248 -1.41358,-0.4248 -1.15722,0 -2.35107,0.8057 l -0.71045,-1.2012 q 0.91553,-0.542 1.64063,-0.769 0.73242,-0.2344 1.79443,-0.2344 1.53076,0 2.37305,0.747 0.84228,0.7398 0.85693,2.0582 l 0.0147,5.2368 -1.69922,0 0,-0.9742 z m -2.27783,-0.3149 q 0.91553,0 1.55273,-0.4248 0.63721,-0.4321 0.71045,-1.0913 l 0,-0.7324 -2.16064,0 q -0.85694,0 -1.25244,0.249 -0.39551,0.2417 -0.39551,0.813 0,0.542 0.41015,0.8642 0.41748,0.3223 1.13526,0.3223 z"
           style=""
           id="path4632" />
        <path
           d="m 222.22937,1045.9794 -1.72119,0 0,-1.5601 q -0.77637,1.5894 -2.84912,1.6187 -1.36231,0 -2.146,-0.8203 -0.78369,-0.8277 -0.78369,-2.2559 l 0,-4.9658 1.72852,0 0,4.4897 q 0,0.9009 0.49072,1.4209 0.49805,0.5127 1.36963,0.5127 1.00342,-0.015 1.59668,-0.7104 0.59326,-0.7032 0.59326,-1.7798 l 0,-3.9331 1.72119,0 0,7.9834 z"
           style=""
           id="path4634" />
        <path
           d="m 224.84412,1045.9794 0,-11.1328 1.72851,0 0,11.1328 -1.72851,0 z"
           style=""
           id="path4636" />
        <path
           d="m 233.71375,1045.4667 q -0.9961,0.5859 -1.97022,0.5859 -0.97412,0 -1.604,-0.5859 -0.62989,-0.586 -0.62989,-1.7359 l 0,-4.1381 -1.12793,0 0,-1.2964 1.12793,0 0,-2.19 1.71387,0 0,2.19 2.35107,0 0,1.2964 -2.35107,0 0,3.8232 q 0,0.6006 0.20508,0.8423 0.2124,0.2344 0.64453,0.2344 0.4834,0 1.20117,-0.3443 l 0.43946,1.3184 z"
           style=""
           id="path4638" />
      </g>
      <g
         style="font-style:normal;font-variant:normal;font-weight:normal;font-stretch:normal;font-size:15px;line-height:125%;font-family:Montserrat;-inkscape-font-specification:Montserrat;text-align:center;letter-spacing:0px;word-spacing:0px;text-anchor:middle;display:inline;fill:#00a7d0;fill-opacity:1;stroke:none;stroke-width:1px;stroke-linecap:butt;stroke-linejoin:miter;stroke-opacity:1"
         id="text5923">
        <path
           d="m 190.66931,941.62762 q 0.76172,0 1.50147,0.21973 0.74707,0.21973 1.28906,0.59326 l -0.62988,1.27442 q -0.52735,-0.32959 -1.14991,-0.5127 -0.62255,-0.19043 -1.1499,-0.19043 -0.54199,0 -0.85693,0.19776 -0.30762,0.19043 -0.30762,0.59326 0,0.40283 0.36621,0.61523 0.36621,0.2124 1.22315,0.4834 0.81298,0.2417 1.34033,0.4834 0.53467,0.23437 0.91553,0.71777 0.38085,0.47608 0.38085,1.25977 0,1.17187 -0.8789,1.77978 -0.87891,0.60059 -2.18262,0.60059 -0.90088,0 -1.76514,-0.29297 -0.85693,-0.29297 -1.44287,-0.81299 l 0.61524,-1.23047 q 0.51269,0.44678 1.25244,0.71778 0.73975,0.27099 1.4209,0.27099 0.58594,0 0.94482,-0.20508 0.35889,-0.2124 0.35889,-0.65185 0,-0.32959 -0.21973,-0.54199 -0.21972,-0.21973 -0.53467,-0.34424 -0.31494,-0.13184 -0.91552,-0.31494 -0.79834,-0.2417 -1.29639,-0.46875 -0.49805,-0.23438 -0.86426,-0.68848 -0.35888,-0.46143 -0.35888,-1.22314 0,-1.14258 0.84228,-1.73584 0.84229,-0.59327 2.10205,-0.59327 z"
           style=""
           id="path4701" />
        <path
           d="m 198.61609,941.64227 q 1.06201,0 1.89697,0.33692 0.84229,0.33691 1.39893,0.96679 l -0.94483,1.11329 q -0.87158,-0.90088 -2.21924,-0.90088 -1.06201,0 -1.75048,0.71045 -0.68116,0.70312 -0.68116,1.83837 0,1.12793 0.66651,1.83838 0.6665,0.71045 1.70654,0.71045 1.53076,0 2.35108,-0.95947 l 0.95947,0.95947 q -0.54199,0.71778 -1.40625,1.10596 -0.85694,0.38086 -1.97754,0.38086 -1.17188,0 -2.0874,-0.50537 -0.91553,-0.5127 -1.42823,-1.42822 -0.50537,-0.91553 -0.50537,-2.10206 0,-1.20117 0.50537,-2.11669 0.5127,-0.92286 1.42823,-1.43555 0.91552,-0.5127 2.0874,-0.5127 z"
           style=""
           id="path4703" />
        <path
           d="m 205.53748,943.29755 q 0.40283,-0.81299 1.10595,-1.23047 0.70313,-0.42481 1.64795,-0.42481 l 0,1.65528 q -1.18652,-0.0586 -1.91894,0.55664 -0.73243,0.60791 -0.83496,1.66259 l 0,4.16749 -1.72852,0 0,-7.9834 1.72852,0 0,1.59668 z"
           style=""
           id="path4705" />
        <path
           d="m 209.72693,949.68427 0,-7.9834 1.71387,0 0,7.9834 -1.71387,0 z m 0.84961,-11.3086 q 0.43945,0 0.7251,0.29297 0.28564,0.29297 0.28564,0.75439 0,0.44678 -0.28564,0.73975 -0.28565,0.29297 -0.7251,0.29297 -0.43213,0 -0.71778,-0.28565 -0.28564,-0.29296 -0.28564,-0.74707 0,-0.46142 0.28564,-0.75439 0.28565,-0.29297 0.71778,-0.29297 z"
           style=""
           id="path4707" />
        <path
           d="m 218.56726,941.64227 q 1.12061,0 1.98486,0.5127 0.86426,0.51269 1.34034,1.44287 0.48339,0.92285 0.48339,2.12402 0,1.18653 -0.47607,2.10205 -0.46875,0.91553 -1.32568,1.4209 -0.85694,0.49805 -1.97754,0.49805 -0.94483,0 -1.66992,-0.36621 -0.71778,-0.36621 -1.14991,-1.06934 l 0,4.28467 -1.72851,0 0,-10.89111 1.72851,0 0,1.38427 q 0.43213,-0.70312 1.14258,-1.06933 0.71777,-0.37354 1.64795,-0.37354 z m -0.35889,6.62842 q 0.70313,0 1.25245,-0.32959 0.55664,-0.32959 0.86425,-0.92285 0.30762,-0.60059 0.30762,-1.35498 0,-0.73242 -0.30762,-1.31836 -0.30761,-0.58594 -0.86425,-0.92285 -0.54932,-0.33692 -1.25245,-0.33692 -0.70312,0 -1.25976,0.32959 -0.55664,0.32959 -0.86426,0.92286 -0.30762,0.59326 -0.30762,1.32568 0,1.15723 0.68116,1.88232 0.68115,0.7251 1.75048,0.7251 z"
           style=""
           id="path4709" />
        <path
           d="m 228.68933,949.17157 q -0.99609,0.58594 -1.97021,0.58594 -0.97412,0 -1.60401,-0.58594 -0.62988,-0.58594 -0.62988,-1.73584 l 0,-4.13818 -1.12793,0 0,-1.29639 1.12793,0 0,-2.18994 1.71387,0 0,2.18994 2.35107,0 0,1.29639 -2.35107,0 0,3.82324 q 0,0.60058 0.20507,0.84228 0.21241,0.23438 0.64454,0.23438 0.48339,0 1.20117,-0.34424 l 0.43945,1.31836 z"
           style=""
           id="path4711" />
      </g>
      <g
         style="font-style:normal;font-variant:normal;font-weight:normal;font-stretch:normal;font-size:7.5px;line-height:125%;font-family:Montserrat;-inkscape-font-specification:Montserrat;text-align:center;letter-spacing:0px;word-spacing:0px;text-anchor:middle;display:inline;fill:#00a7d0;fill-opacity:1;stroke:none;stroke-width:1px;stroke-linecap:butt;stroke-linejoin:miter;stroke-opacity:1"
         id="text5927">
        <path
           d="m 31.609985,1010.1306 q 0.201416,-0.4065 0.552979,-0.6153 0.351562,-0.2124 0.823974,-0.2124 l 0,0.8277 q -0.593261,-0.029 -0.959472,0.2783 -0.366211,0.3039 -0.417481,0.8313 l 0,2.0837 -0.864257,0 0,-3.9917 0.864257,0 0,0.7984 z"
           style=""
           id="path4648" />
        <path
           d="m 35.348999,1009.3029 q 0.944824,0 1.413574,0.5347 0.46875,0.531 0.46875,1.4978 0,0.099 -0.01465,0.3223 l -3.017578,0 q 0.106201,0.465 0.435791,0.7324 0.32959,0.2673 0.802002,0.2673 0.322265,0 0.615234,-0.1208 0.292969,-0.1209 0.509033,-0.3443 l 0.457764,0.4871 q -0.300293,0.3222 -0.721436,0.498 -0.41748,0.1758 -0.926513,0.1758 -0.60791,0 -1.069336,-0.2527 -0.461426,-0.2563 -0.717774,-0.7141 -0.252685,-0.4578 -0.252685,-1.051 0,-0.5933 0.252685,-1.051 0.256348,-0.4615 0.717774,-0.7215 0.461426,-0.26 1.047363,-0.26 z m 1.116943,1.7249 q -0.02197,-0.4798 -0.322265,-0.7544 -0.300293,-0.2783 -0.787354,-0.2783 -0.472412,0 -0.783691,0.2783 -0.311279,0.2746 -0.388184,0.7544 l 2.281494,0 z"
           style=""
           id="path4650" />
        <path
           d="m 41.915161,1014.7778 -0.860596,0 0,-2.135 q -0.216064,0.3515 -0.574951,0.5346 -0.355224,0.1831 -0.827636,0.1831 -0.57129,0 -1.003418,-0.2563 -0.428467,-0.26 -0.670166,-0.7251 -0.238038,-0.4651 -0.238038,-1.0657 0,-0.5932 0.238038,-1.051 0.241699,-0.4578 0.670166,-0.7105 0.432128,-0.2563 0.988769,-0.2563 0.479736,0 0.834961,0.1904 0.355225,0.1868 0.582275,0.5384 l 0,-0.6922 0.860596,0 0,5.4456 z m -2.08374,-2.135 q 0.541992,0 0.882568,-0.3626 0.340576,-0.3662 0.340576,-0.9375 0,-0.5786 -0.340576,-0.9448 -0.340576,-0.3662 -0.882568,-0.3662 -0.53833,0 -0.882568,0.3699 -0.340577,0.3662 -0.347901,0.9411 0.0073,0.5713 0.347901,0.9375 0.344238,0.3626 0.882568,0.3626 z"
           style=""
           id="path4652" />
        <path
           d="m 46.848022,1013.3239 -0.860595,0 0,-0.78 q -0.388184,0.7947 -1.424561,0.8093 -0.681152,0 -1.072998,-0.4101 -0.391846,-0.4139 -0.391846,-1.128 l 0,-2.4829 0.864258,0 0,2.2449 q 0,0.4504 0.245362,0.7104 0.249023,0.2564 0.684814,0.2564 0.501709,-0.01 0.79834,-0.3552 0.296631,-0.3516 0.296631,-0.8899 l 0,-1.9666 0.860595,0 0,3.9917 z"
           style=""
           id="path4654" />
        <path
           d="m 48.118774,1013.3239 0,-3.9917 0.856934,0 0,3.9917 -0.856934,0 z m 0.424805,-5.6543 q 0.219727,0 0.362549,0.1465 0.142822,0.1465 0.142822,0.3772 0,0.2234 -0.142822,0.3699 -0.142822,0.1465 -0.362549,0.1465 -0.216064,0 -0.358887,-0.1429 -0.142822,-0.1465 -0.142822,-0.3735 0,-0.2307 0.142822,-0.3772 0.142823,-0.1465 0.358887,-0.1465 z"
           style=""
           id="path4656" />
        <path
           d="m 51.107056,1010.1306 q 0.201416,-0.4065 0.552978,-0.6153 0.351563,-0.2124 0.823975,-0.2124 l 0,0.8277 q -0.593262,-0.029 -0.959473,0.2783 -0.366211,0.3039 -0.41748,0.8313 l 0,2.0837 -0.864258,0 0,-3.9917 0.864258,0 0,0.7984 z"
           style=""
           id="path4658" />
        <path
           d="m 54.846069,1009.3029 q 0.944825,0 1.413575,0.5347 0.46875,0.531 0.46875,1.4978 0,0.099 -0.01465,0.3223 l -3.017578,0 q 0.106201,0.465 0.435791,0.7324 0.32959,0.2673 0.802002,0.2673 0.322266,0 0.615234,-0.1208 0.292969,-0.1209 0.509034,-0.3443 l 0.457763,0.4871 q -0.300293,0.3222 -0.721435,0.498 -0.417481,0.1758 -0.926514,0.1758 -0.60791,0 -1.069336,-0.2527 -0.461426,-0.2563 -0.717773,-0.7141 -0.252686,-0.4578 -0.252686,-1.051 0,-0.5933 0.252686,-1.051 0.256347,-0.4615 0.717773,-0.7215 0.461426,-0.26 1.047363,-0.26 z m 1.116944,1.7249 q -0.02197,-0.4798 -0.322266,-0.7544 -0.300293,-0.2783 -0.787353,-0.2783 -0.472413,0 -0.783692,0.2783 -0.311279,0.2746 -0.388183,0.7544 l 2.281494,0 z"
           style=""
           id="path4660" />
        <path
           d="m 58.80481,1009.2956 q 0.380859,0 0.750732,0.1099 0.373535,0.1098 0.644531,0.2966 l -0.314941,0.6372 q -0.263672,-0.1648 -0.574951,-0.2564 -0.31128,-0.095 -0.574952,-0.095 -0.270996,0 -0.428466,0.099 -0.153809,0.095 -0.153809,0.2966 0,0.2015 0.183106,0.3077 0.183105,0.1062 0.611572,0.2417 0.406494,0.1208 0.670166,0.2417 0.267334,0.1171 0.457764,0.3588 0.190429,0.2381 0.190429,0.6299 0,0.586 -0.439453,0.8899 -0.439453,0.3003 -1.091309,0.3003 -0.450439,0 -0.882568,-0.1465 -0.428467,-0.1465 -0.721435,-0.4065 l 0.307617,-0.6152 q 0.256347,0.2234 0.62622,0.3589 0.369874,0.1355 0.71045,0.1355 0.292968,0 0.472412,-0.1026 0.179443,-0.1062 0.179443,-0.3259 0,-0.1648 -0.109863,-0.271 -0.109863,-0.1098 -0.267334,-0.1721 -0.157471,-0.066 -0.457764,-0.1575 -0.39917,-0.1208 -0.648193,-0.2343 -0.249024,-0.1172 -0.432129,-0.3443 -0.179443,-0.2307 -0.179443,-0.6116 0,-0.5712 0.421142,-0.8679 0.421143,-0.2966 1.051026,-0.2966 z"
           style=""
           id="path4662" />
      </g>
      <g
         id="g5931"
         transform="translate(-0.25427238,-1.9925781e-5)">
        <path
           id="path5933"
           d="m 128,1004.3622 52,0"
           style="fill:none;fill-rule:evenodd;stroke:#00a7d0;stroke-width:2;stroke-linecap:butt;stroke-linejoin:miter;stroke-miterlimit:4;stroke-dasharray:none;stroke-opacity:1;marker-end:url(#marker4886)" />
        <g
           style="font-style:normal;font-variant:normal;font-weight:normal;font-stretch:normal;font-size:7.5px;line-height:125%;font-family:Montserrat;-inkscape-font-specification:Montserrat;text-align:center;letter-spacing:0px;word-spacing:0px;text-anchor:middle;display:inline;fill:#00a7d0;fill-opacity:1;stroke:none;stroke-width:1px;stroke-linecap:butt;stroke-linejoin:miter;stroke-opacity:1"
           id="text5935">
          <path
             d="m 146.93103,1009.3029 q 0.53101,0 0.94849,0.1685 0.42114,0.1684 0.69946,0.4834 l -0.47241,0.5566 q -0.43579,-0.4504 -1.10962,-0.4504 -0.53101,0 -0.87525,0.3552 -0.34057,0.3516 -0.34057,0.9192 0,0.564 0.33325,0.9192 0.33325,0.3552 0.85327,0.3552 0.76538,0 1.17554,-0.4797 l 0.47973,0.4797 q -0.27099,0.3589 -0.70312,0.553 -0.42847,0.1904 -0.98877,0.1904 -0.58594,0 -1.0437,-0.2527 -0.45776,-0.2563 -0.71411,-0.7141 -0.25269,-0.4578 -0.25269,-1.051 0,-0.6006 0.25269,-1.0584 0.25635,-0.4614 0.71411,-0.7177 0.45776,-0.2564 1.0437,-0.2564 z"
             style=""
             id="path4665" />
          <path
             d="m 151.07654,1009.3029 q 0.60791,0 1.08032,0.2564 0.47241,0.2563 0.73242,0.7141 0.26367,0.4541 0.26367,1.0547 0,0.5932 -0.26367,1.0547 -0.26001,0.4614 -0.73242,0.7177 -0.47241,0.2527 -1.08032,0.2527 -0.61524,0 -1.08765,-0.2527 -0.47241,-0.2563 -0.73608,-0.7177 -0.26001,-0.4615 -0.26001,-1.0547 0,-0.6006 0.26001,-1.0547 0.26367,-0.4578 0.73608,-0.7141 0.47241,-0.2564 1.08765,-0.2564 z m 0,0.7434 q -0.53833,0 -0.88257,0.3626 -0.34058,0.3589 -0.34058,0.9265 0,0.5786 0.34058,0.9412 0.34424,0.3588 0.88257,0.3588 0.53833,0 0.87524,-0.3588 0.34058,-0.3626 0.34058,-0.9412 0,-0.5713 -0.34424,-0.9302 -0.34058,-0.3589 -0.87158,-0.3589 z"
             style=""
             id="path4667" />
          <path
             d="m 156.3866,1009.3029 q 0.6958,0 1.09131,0.4102 0.3955,0.4101 0.3955,1.1279 l 0,2.4829 -0.86425,0 0,-2.2412 q 0,-0.4504 -0.25635,-0.7104 -0.25269,-0.2601 -0.70313,-0.2601 -0.47973,0.01 -0.78369,0.3077 -0.30395,0.3003 -0.3479,0.78 l 0,2.124 -0.86426,0 0,-3.9917 0.86426,0 0,0.7654 q 0.40649,-0.7947 1.46851,-0.7947 z"
             style=""
             id="path4669" />
          <path
             d="m 161.27917,1013.0676 q -0.49804,0.2929 -0.9851,0.2929 -0.48706,0 -0.802,-0.2929 -0.31495,-0.293 -0.31495,-0.868 l 0,-2.069 -0.56396,0 0,-0.6482 0.56396,0 0,-1.095 0.85694,0 0,1.095 1.17553,0 0,0.6482 -1.17553,0 0,1.9116 q 0,0.3003 0.10254,0.4211 0.1062,0.1172 0.32226,0.1172 0.2417,0 0.60059,-0.1721 l 0.21972,0.6592 z"
             style=""
             id="path4671" />
          <path
             d="m 164.45789,1012.8369 q -0.42847,0.5236 -1.31836,0.5236 -0.42115,0 -0.73975,-0.1611 -0.3186,-0.1611 -0.49072,-0.4395 -0.17212,-0.2819 -0.17212,-0.6372 0,-0.5493 0.39551,-0.8679 0.39917,-0.3222 1.11328,-0.3296 l 1.20483,0 0,-0.1208 q 0,-0.3809 -0.24536,-0.5896 -0.2417,-0.2124 -0.70679,-0.2124 -0.57861,0 -1.17553,0.4028 l -0.35523,-0.6006 q 0.45777,-0.271 0.82031,-0.3845 0.36621,-0.1172 0.89722,-0.1172 0.76538,0 1.18652,0.3736 0.42115,0.3698 0.42847,1.029 l 0.007,2.6184 -0.84961,0 0,-0.487 z m -1.13892,-0.1575 q 0.45776,0 0.77637,-0.2124 0.3186,-0.2161 0.35522,-0.5457 l 0,-0.3662 -1.08032,0 q -0.42847,0 -0.62622,0.1245 -0.19776,0.1209 -0.19776,0.4065 0,0.271 0.20508,0.4321 0.20874,0.1612 0.56763,0.1612 z"
             style=""
             id="path4673" />
          <path
             d="m 166.46106,1013.3239 0,-3.9917 0.85693,0 0,3.9917 -0.85693,0 z m 0.4248,-5.6543 q 0.21973,0 0.36255,0.1465 0.14283,0.1465 0.14283,0.3772 0,0.2234 -0.14283,0.3699 -0.14282,0.1465 -0.36255,0.1465 -0.21606,0 -0.35888,-0.1429 -0.14282,-0.1465 -0.14282,-0.3735 0,-0.2307 0.14282,-0.3772 0.14282,-0.1465 0.35888,-0.1465 z"
             style=""
             id="path4675" />
          <path
             d="m 170.91785,1009.3029 q 0.6958,0 1.09131,0.4102 0.3955,0.4101 0.3955,1.1279 l 0,2.4829 -0.86425,0 0,-2.2412 q 0,-0.4504 -0.25635,-0.7104 -0.25269,-0.2601 -0.70313,-0.2601 -0.47973,0.01 -0.78369,0.3077 -0.30395,0.3003 -0.3479,0.78 l 0,2.124 -0.86426,0 0,-3.9917 0.86426,0 0,0.7654 q 0.40649,-0.7947 1.46851,-0.7947 z"
             style=""
             id="path4677" />
          <path
             d="m 174.74475,1009.2956 q 0.38086,0 0.75073,0.1099 0.37354,0.1098 0.64453,0.2966 l -0.31494,0.6372 q -0.26367,-0.1648 -0.57495,-0.2564 -0.31128,-0.095 -0.57495,-0.095 -0.271,0 -0.42847,0.099 -0.1538,0.095 -0.1538,0.2966 0,0.2015 0.1831,0.3077 0.18311,0.1062 0.61157,0.2417 0.4065,0.1208 0.67017,0.2417 0.26733,0.1171 0.45776,0.3588 0.19043,0.2381 0.19043,0.6299 0,0.586 -0.43945,0.8899 -0.43945,0.3003 -1.09131,0.3003 -0.45044,0 -0.88257,-0.1465 -0.42846,-0.1465 -0.72143,-0.4065 l 0.30761,-0.6152 q 0.25635,0.2234 0.62622,0.3589 0.36988,0.1355 0.71045,0.1355 0.29297,0 0.47242,-0.1026 0.17944,-0.1062 0.17944,-0.3259 0,-0.1648 -0.10986,-0.271 -0.10987,-0.1098 -0.26734,-0.1721 -0.15747,-0.066 -0.45776,-0.1575 -0.39917,-0.1208 -0.64819,-0.2343 -0.24903,-0.1172 -0.43213,-0.3443 -0.17945,-0.2307 -0.17945,-0.6116 0,-0.5712 0.42115,-0.8679 0.42114,-0.2966 1.05102,-0.2966 z"
             style=""
             id="path4679" />
        </g>
      </g>
      <g
         style="font-style:normal;font-variant:normal;font-weight:normal;font-stretch:normal;font-size:7.5px;line-height:125%;font-family:Montserrat;-inkscape-font-specification:Montserrat;text-align:center;letter-spacing:0px;word-spacing:0px;text-anchor:middle;display:inline;fill:#00a7d0;fill-opacity:1;stroke:none;stroke-width:1px;stroke-linecap:butt;stroke-linejoin:miter;stroke-opacity:1"
         id="text5939">
        <path
           d="m 146.67676,913.30286 q 0.531,0 0.94848,0.16845 0.42115,0.16846 0.69947,0.4834 l -0.47242,0.55664 q -0.43579,-0.45044 -1.10961,-0.45044 -0.53101,0 -0.87525,0.35523 -0.34057,0.35156 -0.34057,0.91919 0,0.56396 0.33325,0.91919 0.33325,0.35522 0.85327,0.35522 0.76538,0 1.17554,-0.47974 l 0.47973,0.47974 q -0.27099,0.35889 -0.70312,0.55298 -0.42847,0.19043 -0.98877,0.19043 -0.58594,0 -1.0437,-0.25269 -0.45777,-0.25634 -0.71411,-0.71411 -0.25269,-0.45776 -0.25269,-1.05102 0,-0.60059 0.25269,-1.05835 0.25634,-0.46143 0.71411,-0.71778 0.45776,-0.25634 1.0437,-0.25634 z"
           style=""
           id="path4714" />
        <path
           d="m 150.82227,913.30286 q 0.60791,0 1.08032,0.25634 0.47241,0.25635 0.73242,0.71412 0.26367,0.4541 0.26367,1.05468 0,0.59326 -0.26367,1.05469 -0.26001,0.46143 -0.73242,0.71777 -0.47241,0.25269 -1.08032,0.25269 -0.61524,0 -1.08765,-0.25269 -0.47241,-0.25634 -0.73608,-0.71777 -0.26001,-0.46143 -0.26001,-1.05469 0,-0.60058 0.26001,-1.05468 0.26367,-0.45777 0.73608,-0.71412 0.47241,-0.25634 1.08765,-0.25634 z m 0,0.7434 q -0.53833,0 -0.88257,0.36255 -0.34058,0.35889 -0.34058,0.92652 0,0.57861 0.34058,0.94116 0.34424,0.35889 0.88257,0.35889 0.53833,0 0.87524,-0.35889 0.34058,-0.36255 0.34058,-0.94116 0,-0.57129 -0.34424,-0.93018 -0.34058,-0.35889 -0.87158,-0.35889 z"
           style=""
           id="path4716" />
        <path
           d="m 156.13232,913.30286 q 0.6958,0 1.09131,0.41015 0.39551,0.41016 0.39551,1.12793 l 0,2.48291 -0.86426,0 0,-2.24121 q 0,-0.45044 -0.25634,-0.71045 -0.25269,-0.26001 -0.70313,-0.26001 -0.47974,0.007 -0.78369,0.30762 -0.30396,0.30029 -0.3479,0.78003 l 0,2.12402 -0.86426,0 0,-3.9917 0.86426,0 0,0.76538 q 0.40649,-0.79467 1.4685,-0.79467 z"
           style=""
           id="path4718" />
        <path
           d="m 161.0249,917.0675 q -0.49804,0.29297 -0.98511,0.29297 -0.48706,0 -0.802,-0.29297 -0.31494,-0.29296 -0.31494,-0.86792 l 0,-2.06909 -0.56396,0 0,-0.64819 0.56396,0 0,-1.09497 0.85694,0 0,1.09497 1.17553,0 0,0.64819 -1.17553,0 0,1.91162 q 0,0.3003 0.10253,0.42115 0.10621,0.11718 0.32227,0.11718 0.2417,0 0.60059,-0.17211 l 0.21972,0.65917 z"
           style=""
           id="path4720" />
        <path
           d="m 164.20361,916.83679 q -0.42846,0.52368 -1.31836,0.52368 -0.42114,0 -0.73974,-0.16113 -0.31861,-0.16113 -0.49072,-0.43945 -0.17212,-0.28198 -0.17212,-0.63721 0,-0.54932 0.3955,-0.86792 0.39917,-0.32226 1.11329,-0.32959 l 1.20483,0 0,-0.12085 q 0,-0.38086 -0.24536,-0.5896 -0.2417,-0.2124 -0.70679,-0.2124 -0.57861,0 -1.17554,0.40283 l -0.35522,-0.60058 q 0.45776,-0.271 0.82031,-0.38453 0.36621,-0.11718 0.89722,-0.11718 0.76538,0 1.18652,0.37353 0.42114,0.36987 0.42847,1.02905 l 0.007,2.61841 -0.84961,0 0,-0.48706 z m -1.13891,-0.15747 q 0.45776,0 0.77636,-0.2124 0.31861,-0.21607 0.35523,-0.54566 l 0,-0.36621 -1.08032,0 q -0.42847,0 -0.62622,0.12452 -0.19776,0.12085 -0.19776,0.40649 0,0.271 0.20508,0.43213 0.20874,0.16113 0.56763,0.16113 z"
           style=""
           id="path4722" />
        <path
           d="m 166.20679,917.32385 0,-3.9917 0.85693,0 0,3.9917 -0.85693,0 z m 0.4248,-5.65429 q 0.21973,0 0.36255,0.14648 0.14282,0.14648 0.14282,0.3772 0,0.22339 -0.14282,0.36987 -0.14282,0.14648 -0.36255,0.14648 -0.21606,0 -0.35888,-0.14282 -0.14283,-0.14648 -0.14283,-0.37353 0,-0.23072 0.14283,-0.3772 0.14282,-0.14648 0.35888,-0.14648 z"
           style=""
           id="path4724" />
        <path
           d="m 170.66357,913.30286 q 0.6958,0 1.09131,0.41015 0.39551,0.41016 0.39551,1.12793 l 0,2.48291 -0.86426,0 0,-2.24121 q 0,-0.45044 -0.25634,-0.71045 -0.25269,-0.26001 -0.70313,-0.26001 -0.47974,0.007 -0.78369,0.30762 -0.30396,0.30029 -0.3479,0.78003 l 0,2.12402 -0.86426,0 0,-3.9917 0.86426,0 0,0.76538 q 0.40649,-0.79467 1.4685,-0.79467 z"
           style=""
           id="path4726" />
        <path
           d="m 174.49048,913.29553 q 0.38086,0 0.75073,0.10987 0.37354,0.10986 0.64453,0.29663 l -0.31494,0.6372 q -0.26367,-0.16479 -0.57495,-0.25634 -0.31128,-0.0952 -0.57495,-0.0952 -0.271,0 -0.42847,0.0989 -0.15381,0.0952 -0.15381,0.29663 0,0.20141 0.18311,0.30762 0.1831,0.1062 0.61157,0.2417 0.40649,0.12084 0.67017,0.24169 0.26733,0.11719 0.45776,0.35889 0.19043,0.23804 0.19043,0.62988 0,0.58594 -0.43945,0.8899 -0.43946,0.30029 -1.09131,0.30029 -0.45044,0 -0.88257,-0.14648 -0.42847,-0.14649 -0.72144,-0.4065 l 0.30762,-0.61523 q 0.25635,0.22339 0.62622,0.35888 0.36988,0.1355 0.71045,0.1355 0.29297,0 0.47241,-0.10254 0.17945,-0.1062 0.17945,-0.32593 0,-0.16479 -0.10987,-0.27099 -0.10986,-0.10986 -0.26733,-0.17212 -0.15747,-0.0659 -0.45776,-0.15747 -0.39917,-0.12085 -0.6482,-0.23438 -0.24902,-0.11718 -0.43213,-0.34423 -0.17944,-0.23072 -0.17944,-0.61158 0,-0.57129 0.42114,-0.86792 0.42115,-0.29663 1.05103,-0.29663 z"
           style=""
           id="path4728" />
      </g>
      <rect
         y="876.36218"
         x="-0.25427237"
         height="176"
         width="400"
         id="rect5949"
         style="fill:none;fill-opacity:1;stroke:none;stroke-width:3;stroke-linecap:round;stroke-linejoin:round;stroke-miterlimit:4;stroke-dasharray:none;stroke-dashoffset:0;stroke-opacity:1" />
      <path
         id="path5951"
         d="m 233.74573,1004.3622 106,0"
         style="fill:none;fill-rule:evenodd;stroke:#00a7d0;stroke-width:2;stroke-linecap:butt;stroke-linejoin:miter;stroke-miterlimit:4;stroke-dasharray:none;stroke-opacity:1;marker-end:url(#marker6022)" />
      <g
         transform="translate(61.745728,95.999952)"
         id="g5957">
        <rect
           y="876.36218"
           x="274"
           height="64"
           width="64"
           id="rect5959"
           style="display:inline;fill:none;fill-opacity:1;stroke:none;stroke-width:1.5;stroke-miterlimit:4;stroke-dasharray:none;stroke-dashoffset:0;stroke-opacity:1" />
        <path
           id="path5961"
           style="display:inline;fill:#ffffff;fill-opacity:1;fill-rule:evenodd;stroke:none;stroke-width:3;stroke-linecap:butt;stroke-linejoin:miter;stroke-miterlimit:4;stroke-dasharray:none;stroke-opacity:1"
           d="m 322.5,896.86223 -10,-10.0001 m -22.99999,43.0001 0,-43.0001 22.99999,0 10,10.0001 0,33 z" />
        <path
           d="m 322.5,896.86223 -10,0 0,-10.0001 m -22.99999,43.0001 0,-43.0001 22.99999,0 10,10.0001 0,33 z"
           style="display:inline;fill:none;fill-rule:evenodd;stroke:#00a7d0;stroke-width:3;stroke-linecap:butt;stroke-linejoin:miter;stroke-miterlimit:4;stroke-dasharray:none;stroke-opacity:1"
           id="path5963" />
        <path
           id="path5965"
           d="m 297,914.37142 6,10 12,-20"
           style="display:inline;fill:none;fill-rule:evenodd;stroke:#00a7d0;stroke-width:3;stroke-linecap:round;stroke-linejoin:round;stroke-miterlimit:4;stroke-dasharray:none;stroke-opacity:1" />
      </g>
      <path
         style="display:inline;fill:none;fill-rule:evenodd;stroke:#00a7d0;stroke-width:2;stroke-linecap:butt;stroke-linejoin:miter;stroke-miterlimit:4;stroke-dasharray:none;stroke-opacity:1;marker-end:url(#marker6290)"
         d="m 233.39218,908.00859 54,0 0,92.00001"
         id="path5967" />
      <g
         style="font-style:normal;font-variant:normal;font-weight:normal;font-stretch:normal;font-size:7.5px;line-height:125%;font-family:Montserrat;-inkscape-font-specification:Montserrat;text-align:center;letter-spacing:0px;word-spacing:0px;text-anchor:middle;display:inline;fill:#00a7d0;fill-opacity:1;stroke:none;stroke-width:1px;stroke-linecap:butt;stroke-linejoin:miter;stroke-opacity:1"
         id="text5969">
        <path
           d="m 247.64453,913.30286 q 0.69946,0 1.09131,0.41015 0.39551,0.41016 0.39551,1.12793 l 0,2.48291 -0.86426,0 0,-2.24121 q 0,-0.45044 -0.25635,-0.71045 -0.25268,-0.26001 -0.70312,-0.26001 -0.52368,0.007 -0.8313,0.35889 -0.30762,0.3479 -0.30762,0.88623 l 0,1.96655 -0.86426,0 0,-5.5664 0.86426,0 0,2.35473 q 0.41382,-0.80932 1.47583,-0.80932 z"
           style=""
           id="path4682" />
        <path
           d="m 252.00244,913.30286 q 0.60791,0 1.08032,0.25634 0.47242,0.25635 0.73243,0.71412 0.26367,0.4541 0.26367,1.05468 0,0.59326 -0.26367,1.05469 -0.26001,0.46143 -0.73243,0.71777 -0.47241,0.25269 -1.08032,0.25269 -0.61523,0 -1.08765,-0.25269 -0.47241,-0.25634 -0.73608,-0.71777 -0.26001,-0.46143 -0.26001,-1.05469 0,-0.60058 0.26001,-1.05468 0.26367,-0.45777 0.73608,-0.71412 0.47242,-0.25634 1.08765,-0.25634 z m 0,0.7434 q -0.53833,0 -0.88257,0.36255 -0.34057,0.35889 -0.34057,0.92652 0,0.57861 0.34057,0.94116 0.34424,0.35889 0.88257,0.35889 0.53833,0 0.87525,-0.35889 0.34057,-0.36255 0.34057,-0.94116 0,-0.57129 -0.34424,-0.93018 -0.34057,-0.35889 -0.87158,-0.35889 z"
           style=""
           id="path4684" />
        <path
           d="m 255.01636,917.32385 0,-5.5664 0.86426,0 0,5.5664 -0.86426,0 z"
           style=""
           id="path4686" />
        <path
           d="m 258.90186,913.30286 q 0.60791,0 1.08032,0.25634 0.47241,0.25635 0.73242,0.71412 0.26367,0.4541 0.26367,1.05468 0,0.59326 -0.26367,1.05469 -0.26001,0.46143 -0.73242,0.71777 -0.47241,0.25269 -1.08032,0.25269 -0.61524,0 -1.08765,-0.25269 -0.47241,-0.25634 -0.73609,-0.71777 -0.26,-0.46143 -0.26,-1.05469 0,-0.60058 0.26,-1.05468 0.26368,-0.45777 0.73609,-0.71412 0.47241,-0.25634 1.08765,-0.25634 z m 0,0.7434 q -0.53833,0 -0.88257,0.36255 -0.34058,0.35889 -0.34058,0.92652 0,0.57861 0.34058,0.94116 0.34424,0.35889 0.88257,0.35889 0.53833,0 0.87524,-0.35889 0.34058,-0.36255 0.34058,-0.94116 0,-0.57129 -0.34424,-0.93018 -0.34058,-0.35889 -0.87158,-0.35889 z"
           style=""
           id="path4688" />
        <path
           d="m 266.2041,916.83679 q -0.42847,0.52368 -1.31836,0.52368 -0.42114,0 -0.73974,-0.16113 -0.31861,-0.16113 -0.49073,-0.43945 -0.17212,-0.28198 -0.17212,-0.63721 0,-0.54932 0.39551,-0.86792 0.39917,-0.32226 1.11328,-0.32959 l 1.20484,0 0,-0.12085 q 0,-0.38086 -0.24536,-0.5896 -0.2417,-0.2124 -0.70679,-0.2124 -0.57861,0 -1.17554,0.40283 l -0.35522,-0.60058 q 0.45776,-0.271 0.82031,-0.38453 0.36621,-0.11718 0.89722,-0.11718 0.76538,0 1.18652,0.37353 0.42114,0.36987 0.42847,1.02905 l 0.007,2.61841 -0.84961,0 0,-0.48706 z m -1.13891,-0.15747 q 0.45776,0 0.77636,-0.2124 0.31861,-0.21607 0.35523,-0.54566 l 0,-0.36621 -1.08032,0 q -0.42847,0 -0.62623,0.12452 -0.19775,0.12085 -0.19775,0.40649 0,0.271 0.20508,0.43213 0.20874,0.16113 0.56763,0.16113 z"
           style=""
           id="path4690" />
        <path
           d="m 270.50342,913.30286 q 0.5603,0 0.99243,0.25634 0.43213,0.25635 0.67017,0.72144 0.24169,0.46143 0.24169,1.06201 0,0.59326 -0.23803,1.05103 -0.23438,0.45776 -0.66284,0.71045 -0.42847,0.24902 -0.98877,0.24902 -0.47242,0 -0.83496,-0.18311 -0.35889,-0.1831 -0.57496,-0.53466 l 0,2.14233 -0.86425,0 0,-5.44556 0.86425,0 0,0.69214 q 0.21607,-0.35156 0.57129,-0.53467 0.35889,-0.18676 0.82398,-0.18676 z m -0.17945,3.31421 q 0.35157,0 0.62623,-0.1648 0.27832,-0.16479 0.43212,-0.46143 0.15381,-0.30029 0.15381,-0.67749 0,-0.36621 -0.15381,-0.65918 -0.1538,-0.29296 -0.43212,-0.46142 -0.27466,-0.16846 -0.62623,-0.16846 -0.35156,0 -0.62988,0.1648 -0.27832,0.16479 -0.43213,0.46142 -0.15381,0.29663 -0.15381,0.66284 0,0.57862 0.34058,0.94117 0.34058,0.36255 0.87524,0.36255 z"
           style=""
           id="path4692" />
        <path
           d="m 275.60107,913.30286 q 0.56031,0 0.99244,0.25634 0.43212,0.25635 0.67016,0.72144 0.2417,0.46143 0.2417,1.06201 0,0.59326 -0.23804,1.05103 -0.23437,0.45776 -0.66284,0.71045 -0.42846,0.24902 -0.98877,0.24902 -0.47241,0 -0.83496,-0.18311 -0.35889,-0.1831 -0.57495,-0.53466 l 0,2.14233 -0.86426,0 0,-5.44556 0.86426,0 0,0.69214 q 0.21606,-0.35156 0.57129,-0.53467 0.35889,-0.18676 0.82397,-0.18676 z m -0.17944,3.31421 q 0.35156,0 0.62622,-0.1648 0.27832,-0.16479 0.43213,-0.46143 0.15381,-0.30029 0.15381,-0.67749 0,-0.36621 -0.15381,-0.65918 -0.15381,-0.29296 -0.43213,-0.46142 -0.27466,-0.16846 -0.62622,-0.16846 -0.35156,0 -0.62988,0.1648 -0.27832,0.16479 -0.43213,0.46142 -0.15381,0.29663 -0.15381,0.66284 0,0.57862 0.34058,0.94117 0.34057,0.36255 0.87524,0.36255 z"
           style=""
           id="path4694" />
        <path
           d="m 278.43921,917.32385 0,-5.5664 0.86426,0 0,5.5664 -0.86426,0 z"
           style=""
           id="path4696" />
        <path
           d="m 282.18188,917.87317 q -0.18676,0.47241 -0.51635,0.70679 -0.32959,0.23803 -0.78003,0.23803 -0.271,0 -0.49439,-0.0842 -0.21972,-0.0842 -0.42846,-0.25634 l 0.36621,-0.66651 q 0.14282,0.1062 0.26367,0.15015 0.12085,0.0439 0.25635,0.0439 0.40649,0 0.60424,-0.43945 l 0.1355,-0.30029 -1.64795,-3.93311 0.8899,0 1.19384,3.02491 1.10962,-3.02491 0.86426,0 -1.81641,4.54102 z"
           style=""
           id="path4698" />
      </g>
      <g
         id="g6402"
         transform="translate(237.19424,-272.78446)">
        <rect
           style="display:inline;fill:none;fill-opacity:1;stroke:none;stroke-width:1.5;stroke-miterlimit:4;stroke-dasharray:none;stroke-dashoffset:0;stroke-opacity:1"
           id="rect6404"
           width="64"
           height="64"
           x="-61.448505"
           y="1149.1466" />
        <path
           d="m -12.963768,1169.8028 -10,-10.0001 m -22.999997,43.0001 0,-43.0001 22.999997,0 10,10.0001 0,33 z"
           style="display:inline;fill:#ffffff;fill-opacity:1;fill-rule:evenodd;stroke:none;stroke-width:3;stroke-linecap:butt;stroke-linejoin:miter;stroke-miterlimit:4;stroke-dasharray:none;stroke-opacity:1"
           id="path6406" />
        <path
           d="m -12.948507,1169.6466 -10,0 0,-10.0001 m -22.999997,43.0001 0,-43.0001 22.999997,0 10,10.0001 0,33 z"
           style="display:inline;fill:none;fill-rule:evenodd;stroke:#00a7d0;stroke-width:3;stroke-linecap:butt;stroke-linejoin:miter;stroke-miterlimit:4;stroke-dasharray:none;stroke-opacity:1"
           id="path6408" />
        <g
           id="g6410"
           style="font-style:normal;font-variant:normal;font-weight:normal;font-stretch:normal;font-size:27.29878807px;line-height:125%;font-family:Montserrat;-inkscape-font-specification:Montserrat;text-align:start;letter-spacing:0px;word-spacing:0px;text-anchor:start;display:inline;fill:#00a7d0;fill-opacity:1;stroke:none;stroke-width:1px;stroke-linecap:butt;stroke-linejoin:miter;stroke-opacity:1">
          <path
             id="path6412"
             d="m -27.902284,1188.169 3.825563,0 -0.226601,2.346 -3.865551,0 -0.599827,4.7186 -2.292672,0 0.573168,-4.7186 -4.838604,0 -0.599826,4.7186 -2.292672,0 0.573168,-4.7186 -3.825563,0 0.226601,-2.346 3.90554,0 0.573168,-4.8119 -3.798904,0 0.213272,-2.346 3.878881,0 0.599826,-4.8919 2.319331,0 -0.599827,4.8919 4.838604,0 0.599827,-4.8919 2.31933,0 -0.599827,4.8919 3.785575,0 -0.186613,2.346 -3.90554,0 -0.599827,4.8119 z m -6.544777,-4.8119 -0.599827,4.8119 4.851933,0 0.573168,-4.8119 -4.825274,0 z" />
          <path
             id="path6414"
             d="m -18.171758,1189.1421 -1.986094,0 -0.493191,-8.0777 0,-4.692 2.972476,0 0,4.692 -0.493191,8.0777 z m -0.973053,2.7325 q 0.733122,0 1.226313,0.5065 0.493191,0.5066 0.493191,1.2663 0,0.7865 -0.493191,1.3063 -0.493191,0.5199 -1.226313,0.5199 -0.733121,0 -1.226312,-0.5065 -0.493191,-0.5199 -0.493191,-1.3197 0,-0.7597 0.479861,-1.2663 0.493191,-0.5065 1.239642,-0.5065 z" />
        </g>
      </g>
      <g
         style="font-style:normal;font-variant:normal;font-weight:normal;font-stretch:normal;font-size:15px;line-height:125%;font-family:Montserrat;-inkscape-font-specification:Montserrat;text-align:center;letter-spacing:0px;word-spacing:0px;text-anchor:middle;display:inline;fill:#00a7d0;fill-opacity:1;stroke:none;stroke-width:1px;stroke-linecap:butt;stroke-linejoin:miter;stroke-opacity:1"
         id="text6416">
        <path
           d="m 345.3446,1037.9374 q 1.36963,0 2.146,0.8276 0.78369,0.8277 0.78369,2.2485 l 0,4.9659 -1.72851,0 0,-4.4825 q 0,-0.9155 -0.50537,-1.4355 -0.49805,-0.52 -1.38428,-0.52 -1.00342,0.029 -1.59668,0.7324 -0.59326,0.6958 -0.59326,1.7578 l 0,3.9478 -1.72119,0 0,-4.4825 q 0,-0.9155 -0.50538,-1.4355 -0.50537,-0.52 -1.36962,-0.52 -1.01807,0.029 -1.61866,0.7324 -0.60058,0.6958 -0.60058,1.7578 l 0,3.9478 -1.71387,0 0,-7.9834 1.71387,0 0,1.5454 q 0.79834,-1.604 2.89306,-1.604 1.06201,0 1.77246,0.5053 0.71778,0.4981 1.00342,1.4136 0.73242,-1.9189 3.0249,-1.9189 z"
           style=""
           id="path4611" />
        <path
           d="m 354.00183,1037.9374 q 1.21582,0 2.16065,0.5127 0.94482,0.5127 1.46484,1.4282 0.52734,0.9082 0.52734,2.1094 0,1.1865 -0.52734,2.1093 -0.52002,0.9229 -1.46484,1.4356 -0.94483,0.5054 -2.16065,0.5054 -1.23047,0 -2.17529,-0.5054 -0.94483,-0.5127 -1.47217,-1.4356 -0.52002,-0.9228 -0.52002,-2.1093 0,-1.2012 0.52002,-2.1094 0.52734,-0.9155 1.47217,-1.4282 0.94482,-0.5127 2.17529,-0.5127 z m 0,1.4868 q -1.07666,0 -1.76514,0.7251 -0.68115,0.7178 -0.68115,1.853 0,1.1572 0.68115,1.8823 0.68848,0.7178 1.76514,0.7178 1.07666,0 1.75049,-0.7178 0.68115,-0.7251 0.68115,-1.8823 0,-1.1426 -0.68847,-1.8603 -0.68116,-0.7178 -1.74317,-0.7178 z"
           style=""
           id="path4613" />
        <path
           d="m 367.55896,1045.9794 -1.72119,0 0,-1.3623 q -0.43213,0.7031 -1.1499,1.0693 -0.71045,0.3662 -1.65528,0.3662 -1.14258,0 -2.00683,-0.5127 -0.85694,-0.52 -1.34034,-1.4502 -0.47607,-0.9302 -0.47607,-2.1313 0,-1.1865 0.47607,-2.1021 0.4834,-0.9155 1.34034,-1.4209 0.86425,-0.5127 1.97754,-0.5127 0.95947,0 1.66992,0.3809 0.71045,0.3735 1.16455,1.0766 l 0,-4.5336 1.72119,0 0,11.1328 z m -4.16748,-1.3623 q 1.08398,0 1.76514,-0.7251 0.68115,-0.7325 0.68115,-1.875 0,-1.1573 -0.68115,-1.8897 -0.68116,-0.7324 -1.76514,-0.7324 -1.07666,0 -1.76514,0.7397 -0.68115,0.7325 -0.6958,1.8824 0.0147,1.1425 0.6958,1.875 0.68848,0.7251 1.76514,0.7251 z"
           style=""
           id="path4615" />
        <path
           d="m 370.18103,1045.9794 0,-7.9834 1.71387,0 0,7.9834 -1.71387,0 z m 0.84961,-11.3086 q 0.43945,0 0.7251,0.2929 0.28564,0.293 0.28564,0.7544 0,0.4468 -0.28564,0.7398 -0.28565,0.293 -0.7251,0.293 -0.43213,0 -0.71777,-0.2857 -0.28565,-0.293 -0.28565,-0.7471 0,-0.4614 0.28565,-0.7544 0.28564,-0.2929 0.71777,-0.2929 z"
           style=""
           id="path4617" />
        <path
           d="m 380.42761,1036.7509 q -0.43213,0 -0.71777,-0.2857 -0.28565,-0.293 -0.28565,-0.7471 0,-0.4614 0.28565,-0.7544 0.28564,-0.2929 0.71777,-0.2929 0.43213,0 0.71778,0.2929 0.28564,0.293 0.28564,0.7544 0,0.4468 -0.28564,0.7398 -0.27832,0.293 -0.71778,0.293 z m -5.66894,0.769 q 0,-0.9009 0.38818,-1.5234 0.39551,-0.6226 1.02539,-0.9229 0.62988,-0.3003 1.33301,-0.3003 0.85693,0 1.48682,0.3589 l -0.0659,1.5015 q -0.76172,-0.3443 -1.37696,-0.3443 -0.49804,0 -0.79101,0.2564 -0.28565,0.2563 -0.28565,0.8056 l 0,0.9302 2.08008,0 0,1.2964 -2.08008,0 0,6.4014 -1.71386,0 0,-6.4014 -1.04737,0 0,-1.2964 1.04737,0 0,-0.7617 z m 6.52588,0.4761 0,7.9834 -1.70655,0 0,-7.9834 1.70655,0 z"
           style=""
           id="path4619" />
        <path
           d="m 387.12195,1037.9374 q 1.88965,0 2.82715,1.0693 0.9375,1.062 0.9375,2.9956 0,0.1978 -0.0293,0.6446 l -6.03516,0 q 0.21241,0.9301 0.87159,1.4648 0.65918,0.5347 1.604,0.5347 0.64453,0 1.23047,-0.2417 0.58594,-0.2417 1.01806,-0.6885 l 0.91553,0.9741 q -0.60058,0.6445 -1.44287,0.9961 -0.83496,0.3516 -1.85303,0.3516 -1.21582,0 -2.13867,-0.5054 -0.92285,-0.5127 -1.43555,-1.4282 -0.50537,-0.9156 -0.50537,-2.1021 0,-1.1865 0.50537,-2.102 0.5127,-0.9229 1.43555,-1.4429 0.92285,-0.52 2.09473,-0.52 z m 2.23388,3.4497 q -0.0439,-0.9595 -0.64453,-1.5088 -0.60058,-0.5566 -1.5747,-0.5566 -0.94483,0 -1.56739,0.5566 -0.62255,0.5493 -0.77636,1.5088 l 4.56298,0 z"
           style=""
           id="path4621" />
        <path
           d="m 400.25427,1045.9794 -1.72119,0 0,-1.3623 q -0.43213,0.7031 -1.1499,1.0693 -0.71045,0.3662 -1.65527,0.3662 -1.14258,0 -2.00684,-0.5127 -0.85693,-0.52 -1.34033,-1.4502 -0.47608,-0.9302 -0.47608,-2.1313 0,-1.1865 0.47608,-2.1021 0.4834,-0.9155 1.34033,-1.4209 0.86426,-0.5127 1.97754,-0.5127 0.95947,0 1.66992,0.3809 0.71045,0.3735 1.16455,1.0766 l 0,-4.5336 1.72119,0 0,11.1328 z m -4.16748,-1.3623 q 1.08399,0 1.76514,-0.7251 0.68115,-0.7325 0.68115,-1.875 0,-1.1573 -0.68115,-1.8897 -0.68115,-0.7324 -1.76514,-0.7324 -1.07666,0 -1.76513,0.7397 -0.68116,0.7325 -0.69581,1.8824 0.0146,1.1425 0.69581,1.875 0.68847,0.7251 1.76513,0.7251 z"
           style=""
           id="path4623" />
      </g>
    </g>
  </g>
</svg>
